<?xml version="1.0" encoding="utf-8"?>
<svg xmlns="http://www.w3.org/2000/svg" xmlns:xlink="http://www.w3.org/1999/xlink" width="600" height="400" viewBox="0 0 2400 1600">
<defs>
  <clipPath id="clip6700">
    <rect x="0" y="0" width="2400" height="1600"/>
  </clipPath>
</defs>
<path clip-path="url(#clip6700)" d="
M0 1600 L2400 1600 L2400 0 L0 0  Z
  " fill="#ffffff" fill-rule="evenodd" fill-opacity="1"/>
<defs>
  <clipPath id="clip6701">
    <rect x="480" y="0" width="1681" height="1600"/>
  </clipPath>
</defs>
<path clip-path="url(#clip6700)" d="
M217.251 1423.18 L2352.76 1423.18 L2352.76 47.2441 L217.251 47.2441  Z
  " fill="#ffffff" fill-rule="evenodd" fill-opacity="1"/>
<defs>
  <clipPath id="clip6702">
    <rect x="217" y="47" width="2137" height="1377"/>
  </clipPath>
</defs>
<polyline clip-path="url(#clip6700)" style="stroke:#000000; stroke-width:4; stroke-opacity:1; fill:none" points="
  217.251,1423.18 2352.76,1423.18 
  "/>
<polyline clip-path="url(#clip6700)" style="stroke:#000000; stroke-width:4; stroke-opacity:1; fill:none" points="
  217.251,1423.18 217.251,47.2441 
  "/>
<polyline clip-path="url(#clip6700)" style="stroke:#000000; stroke-width:4; stroke-opacity:1; fill:none" points="
  273.652,1423.18 273.652,1406.67 
  "/>
<polyline clip-path="url(#clip6700)" style="stroke:#000000; stroke-width:4; stroke-opacity:1; fill:none" points="
  677.385,1423.18 677.385,1406.67 
  "/>
<polyline clip-path="url(#clip6700)" style="stroke:#000000; stroke-width:4; stroke-opacity:1; fill:none" points="
  1081.12,1423.18 1081.12,1406.67 
  "/>
<polyline clip-path="url(#clip6700)" style="stroke:#000000; stroke-width:4; stroke-opacity:1; fill:none" points="
  1484.85,1423.18 1484.85,1406.67 
  "/>
<polyline clip-path="url(#clip6700)" style="stroke:#000000; stroke-width:4; stroke-opacity:1; fill:none" points="
  1888.58,1423.18 1888.58,1406.67 
  "/>
<polyline clip-path="url(#clip6700)" style="stroke:#000000; stroke-width:4; stroke-opacity:1; fill:none" points="
  2292.32,1423.18 2292.32,1406.67 
  "/>
<polyline clip-path="url(#clip6700)" style="stroke:#000000; stroke-width:4; stroke-opacity:1; fill:none" points="
  217.251,1190.21 242.877,1190.21 
  "/>
<polyline clip-path="url(#clip6700)" style="stroke:#000000; stroke-width:4; stroke-opacity:1; fill:none" points="
  217.251,826.035 242.877,826.035 
  "/>
<polyline clip-path="url(#clip6700)" style="stroke:#000000; stroke-width:4; stroke-opacity:1; fill:none" points="
  217.251,461.862 242.877,461.862 
  "/>
<polyline clip-path="url(#clip6700)" style="stroke:#000000; stroke-width:4; stroke-opacity:1; fill:none" points="
  217.251,97.6901 242.877,97.6901 
  "/>
<path clip-path="url(#clip6700)" d="M 0 0 M273.652 1445.17 Q270.041 1445.17 268.212 1448.74 Q266.407 1452.28 266.407 1459.41 Q266.407 1466.51 268.212 1470.08 Q270.041 1473.62 273.652 1473.62 Q277.286 1473.62 279.092 1470.08 Q280.921 1466.51 280.921 1459.41 Q280.921 1452.28 279.092 1448.74 Q277.286 1445.17 273.652 1445.17 M273.652 1441.47 Q279.462 1441.47 282.518 1446.07 Q285.596 1450.66 285.596 1459.41 Q285.596 1468.13 282.518 1472.74 Q279.462 1477.32 273.652 1477.32 Q267.842 1477.32 264.763 1472.74 Q261.708 1468.13 261.708 1459.41 Q261.708 1450.66 264.763 1446.07 Q267.842 1441.47 273.652 1441.47 Z" fill="#000000" fill-rule="evenodd" fill-opacity="1" /><path clip-path="url(#clip6700)" d="M 0 0 M640.753 1472.72 L648.392 1472.72 L648.392 1446.35 L640.082 1448.02 L640.082 1443.76 L648.346 1442.09 L653.022 1442.09 L653.022 1472.72 L660.661 1472.72 L660.661 1476.65 L640.753 1476.65 L640.753 1472.72 Z" fill="#000000" fill-rule="evenodd" fill-opacity="1" /><path clip-path="url(#clip6700)" d="M 0 0 M675.73 1445.17 Q672.119 1445.17 670.29 1448.74 Q668.485 1452.28 668.485 1459.41 Q668.485 1466.51 670.29 1470.08 Q672.119 1473.62 675.73 1473.62 Q679.364 1473.62 681.17 1470.08 Q682.998 1466.51 682.998 1459.41 Q682.998 1452.28 681.17 1448.74 Q679.364 1445.17 675.73 1445.17 M675.73 1441.47 Q681.54 1441.47 684.596 1446.07 Q687.674 1450.66 687.674 1459.41 Q687.674 1468.13 684.596 1472.74 Q681.54 1477.32 675.73 1477.32 Q669.92 1477.32 666.841 1472.74 Q663.786 1468.13 663.786 1459.41 Q663.786 1450.66 666.841 1446.07 Q669.92 1441.47 675.73 1441.47 Z" fill="#000000" fill-rule="evenodd" fill-opacity="1" /><path clip-path="url(#clip6700)" d="M 0 0 M702.744 1445.17 Q699.133 1445.17 697.304 1448.74 Q695.498 1452.28 695.498 1459.41 Q695.498 1466.51 697.304 1470.08 Q699.133 1473.62 702.744 1473.62 Q706.378 1473.62 708.183 1470.08 Q710.012 1466.51 710.012 1459.41 Q710.012 1452.28 708.183 1448.74 Q706.378 1445.17 702.744 1445.17 M702.744 1441.47 Q708.554 1441.47 711.609 1446.07 Q714.688 1450.66 714.688 1459.41 Q714.688 1468.13 711.609 1472.74 Q708.554 1477.32 702.744 1477.32 Q696.934 1477.32 693.855 1472.74 Q690.799 1468.13 690.799 1459.41 Q690.799 1450.66 693.855 1446.07 Q696.934 1441.47 702.744 1441.47 Z" fill="#000000" fill-rule="evenodd" fill-opacity="1" /><path clip-path="url(#clip6700)" d="M 0 0 M1048.76 1472.72 L1065.08 1472.72 L1065.08 1476.65 L1043.13 1476.65 L1043.13 1472.72 Q1045.79 1469.96 1050.38 1465.33 Q1054.98 1460.68 1056.16 1459.34 Q1058.41 1456.81 1059.29 1455.08 Q1060.19 1453.32 1060.19 1451.63 Q1060.19 1448.87 1058.25 1447.14 Q1056.33 1445.4 1053.22 1445.4 Q1051.03 1445.4 1048.57 1446.17 Q1046.14 1446.93 1043.36 1448.48 L1043.36 1443.76 Q1046.19 1442.62 1048.64 1442.05 Q1051.1 1441.47 1053.13 1441.47 Q1058.5 1441.47 1061.7 1444.15 Q1064.89 1446.84 1064.89 1451.33 Q1064.89 1453.46 1064.08 1455.38 Q1063.29 1457.28 1061.19 1459.87 Q1060.61 1460.54 1057.51 1463.76 Q1054.41 1466.95 1048.76 1472.72 Z" fill="#000000" fill-rule="evenodd" fill-opacity="1" /><path clip-path="url(#clip6700)" d="M 0 0 M1080.15 1445.17 Q1076.53 1445.17 1074.71 1448.74 Q1072.9 1452.28 1072.9 1459.41 Q1072.9 1466.51 1074.71 1470.08 Q1076.53 1473.62 1080.15 1473.62 Q1083.78 1473.62 1085.59 1470.08 Q1087.41 1466.51 1087.41 1459.41 Q1087.41 1452.28 1085.59 1448.74 Q1083.78 1445.17 1080.15 1445.17 M1080.15 1441.47 Q1085.96 1441.47 1089.01 1446.07 Q1092.09 1450.66 1092.09 1459.41 Q1092.09 1468.13 1089.01 1472.74 Q1085.96 1477.32 1080.15 1477.32 Q1074.34 1477.32 1071.26 1472.74 Q1068.2 1468.13 1068.2 1459.41 Q1068.2 1450.66 1071.26 1446.07 Q1074.34 1441.47 1080.15 1441.47 Z" fill="#000000" fill-rule="evenodd" fill-opacity="1" /><path clip-path="url(#clip6700)" d="M 0 0 M1107.16 1445.17 Q1103.55 1445.17 1101.72 1448.74 Q1099.91 1452.28 1099.91 1459.41 Q1099.91 1466.51 1101.72 1470.08 Q1103.55 1473.62 1107.16 1473.62 Q1110.79 1473.62 1112.6 1470.08 Q1114.43 1466.51 1114.43 1459.41 Q1114.43 1452.28 1112.6 1448.74 Q1110.79 1445.17 1107.16 1445.17 M1107.16 1441.47 Q1112.97 1441.47 1116.03 1446.07 Q1119.1 1450.66 1119.1 1459.41 Q1119.1 1468.13 1116.03 1472.74 Q1112.97 1477.32 1107.16 1477.32 Q1101.35 1477.32 1098.27 1472.74 Q1095.22 1468.13 1095.22 1459.41 Q1095.22 1450.66 1098.27 1446.07 Q1101.35 1441.47 1107.16 1441.47 Z" fill="#000000" fill-rule="evenodd" fill-opacity="1" /><path clip-path="url(#clip6700)" d="M 0 0 M1462.08 1458.02 Q1465.44 1458.74 1467.32 1461 Q1469.21 1463.27 1469.21 1466.61 Q1469.21 1471.72 1465.7 1474.52 Q1462.18 1477.32 1455.7 1477.32 Q1453.52 1477.32 1451.21 1476.88 Q1448.91 1476.47 1446.46 1475.61 L1446.46 1471.1 Q1448.4 1472.23 1450.72 1472.81 Q1453.03 1473.39 1455.56 1473.39 Q1459.96 1473.39 1462.25 1471.65 Q1464.56 1469.92 1464.56 1466.61 Q1464.56 1463.55 1462.41 1461.84 Q1460.28 1460.1 1456.46 1460.1 L1452.43 1460.1 L1452.43 1456.26 L1456.65 1456.26 Q1460.09 1456.26 1461.92 1454.89 Q1463.75 1453.5 1463.75 1450.91 Q1463.75 1448.25 1461.85 1446.84 Q1459.98 1445.4 1456.46 1445.4 Q1454.54 1445.4 1452.34 1445.82 Q1450.14 1446.24 1447.5 1447.11 L1447.5 1442.95 Q1450.16 1442.21 1452.48 1441.84 Q1454.82 1441.47 1456.88 1441.47 Q1462.2 1441.47 1465.3 1443.9 Q1468.4 1446.3 1468.4 1450.43 Q1468.4 1453.3 1466.76 1455.29 Q1465.12 1457.25 1462.08 1458.02 Z" fill="#000000" fill-rule="evenodd" fill-opacity="1" /><path clip-path="url(#clip6700)" d="M 0 0 M1484.28 1445.17 Q1480.67 1445.17 1478.84 1448.74 Q1477.04 1452.28 1477.04 1459.41 Q1477.04 1466.51 1478.84 1470.08 Q1480.67 1473.62 1484.28 1473.62 Q1487.92 1473.62 1489.72 1470.08 Q1491.55 1466.51 1491.55 1459.41 Q1491.55 1452.28 1489.72 1448.74 Q1487.92 1445.17 1484.28 1445.17 M1484.28 1441.47 Q1490.09 1441.47 1493.15 1446.07 Q1496.23 1450.66 1496.23 1459.41 Q1496.23 1468.13 1493.15 1472.74 Q1490.09 1477.32 1484.28 1477.32 Q1478.47 1477.32 1475.4 1472.74 Q1472.34 1468.13 1472.34 1459.41 Q1472.34 1450.66 1475.4 1446.07 Q1478.47 1441.47 1484.28 1441.47 Z" fill="#000000" fill-rule="evenodd" fill-opacity="1" /><path clip-path="url(#clip6700)" d="M 0 0 M1511.3 1445.17 Q1507.69 1445.17 1505.86 1448.74 Q1504.05 1452.28 1504.05 1459.41 Q1504.05 1466.51 1505.86 1470.08 Q1507.69 1473.62 1511.3 1473.62 Q1514.93 1473.62 1516.74 1470.08 Q1518.57 1466.51 1518.57 1459.41 Q1518.57 1452.28 1516.74 1448.74 Q1514.93 1445.17 1511.3 1445.17 M1511.3 1441.47 Q1517.11 1441.47 1520.16 1446.07 Q1523.24 1450.66 1523.24 1459.41 Q1523.24 1468.13 1520.16 1472.74 Q1517.11 1477.32 1511.3 1477.32 Q1505.49 1477.32 1502.41 1472.74 Q1499.35 1468.13 1499.35 1459.41 Q1499.35 1450.66 1502.41 1446.07 Q1505.49 1441.47 1511.3 1441.47 Z" fill="#000000" fill-rule="evenodd" fill-opacity="1" /><path clip-path="url(#clip6700)" d="M 0 0 M1864.58 1446.17 L1852.77 1464.61 L1864.58 1464.61 L1864.58 1446.17 M1863.35 1442.09 L1869.23 1442.09 L1869.23 1464.61 L1874.16 1464.61 L1874.16 1468.5 L1869.23 1468.5 L1869.23 1476.65 L1864.58 1476.65 L1864.58 1468.5 L1848.98 1468.5 L1848.98 1463.99 L1863.35 1442.09 Z" fill="#000000" fill-rule="evenodd" fill-opacity="1" /><path clip-path="url(#clip6700)" d="M 0 0 M1889.23 1445.17 Q1885.62 1445.17 1883.79 1448.74 Q1881.99 1452.28 1881.99 1459.41 Q1881.99 1466.51 1883.79 1470.08 Q1885.62 1473.62 1889.23 1473.62 Q1892.87 1473.62 1894.67 1470.08 Q1896.5 1466.51 1896.5 1459.41 Q1896.5 1452.28 1894.67 1448.74 Q1892.87 1445.17 1889.23 1445.17 M1889.23 1441.47 Q1895.04 1441.47 1898.1 1446.07 Q1901.18 1450.66 1901.18 1459.41 Q1901.18 1468.13 1898.1 1472.74 Q1895.04 1477.32 1889.23 1477.32 Q1883.42 1477.32 1880.34 1472.74 Q1877.29 1468.13 1877.29 1459.41 Q1877.29 1450.66 1880.34 1446.07 Q1883.42 1441.47 1889.23 1441.47 Z" fill="#000000" fill-rule="evenodd" fill-opacity="1" /><path clip-path="url(#clip6700)" d="M 0 0 M1916.25 1445.17 Q1912.63 1445.17 1910.81 1448.74 Q1909 1452.28 1909 1459.41 Q1909 1466.51 1910.81 1470.08 Q1912.63 1473.62 1916.25 1473.62 Q1919.88 1473.62 1921.69 1470.08 Q1923.51 1466.51 1923.51 1459.41 Q1923.51 1452.28 1921.69 1448.74 Q1919.88 1445.17 1916.25 1445.17 M1916.25 1441.47 Q1922.06 1441.47 1925.11 1446.07 Q1928.19 1450.66 1928.19 1459.41 Q1928.19 1468.13 1925.11 1472.74 Q1922.06 1477.32 1916.25 1477.32 Q1910.44 1477.32 1907.36 1472.74 Q1904.3 1468.13 1904.3 1459.41 Q1904.3 1450.66 1907.36 1446.07 Q1910.44 1441.47 1916.25 1441.47 Z" fill="#000000" fill-rule="evenodd" fill-opacity="1" /><path clip-path="url(#clip6700)" d="M 0 0 M2255.58 1442.09 L2273.94 1442.09 L2273.94 1446.03 L2259.86 1446.03 L2259.86 1454.5 Q2260.88 1454.15 2261.9 1453.99 Q2262.92 1453.8 2263.94 1453.8 Q2269.72 1453.8 2273.1 1456.98 Q2276.48 1460.15 2276.48 1465.56 Q2276.48 1471.14 2273.01 1474.24 Q2269.54 1477.32 2263.22 1477.32 Q2261.04 1477.32 2258.78 1476.95 Q2256.53 1476.58 2254.12 1475.84 L2254.12 1471.14 Q2256.21 1472.28 2258.43 1472.83 Q2260.65 1473.39 2263.13 1473.39 Q2267.13 1473.39 2269.47 1471.28 Q2271.81 1469.18 2271.81 1465.56 Q2271.81 1461.95 2269.47 1459.85 Q2267.13 1457.74 2263.13 1457.74 Q2261.25 1457.74 2259.38 1458.16 Q2257.53 1458.57 2255.58 1459.45 L2255.58 1442.09 Z" fill="#000000" fill-rule="evenodd" fill-opacity="1" /><path clip-path="url(#clip6700)" d="M 0 0 M2291.55 1445.17 Q2287.94 1445.17 2286.11 1448.74 Q2284.31 1452.28 2284.31 1459.41 Q2284.31 1466.51 2286.11 1470.08 Q2287.94 1473.62 2291.55 1473.62 Q2295.19 1473.62 2296.99 1470.08 Q2298.82 1466.51 2298.82 1459.41 Q2298.82 1452.28 2296.99 1448.74 Q2295.19 1445.17 2291.55 1445.17 M2291.55 1441.47 Q2297.36 1441.47 2300.42 1446.07 Q2303.5 1450.66 2303.5 1459.41 Q2303.5 1468.13 2300.42 1472.74 Q2297.36 1477.32 2291.55 1477.32 Q2285.74 1477.32 2282.66 1472.74 Q2279.61 1468.13 2279.61 1459.41 Q2279.61 1450.66 2282.66 1446.07 Q2285.74 1441.47 2291.55 1441.47 Z" fill="#000000" fill-rule="evenodd" fill-opacity="1" /><path clip-path="url(#clip6700)" d="M 0 0 M2318.57 1445.17 Q2314.96 1445.17 2313.13 1448.74 Q2311.32 1452.28 2311.32 1459.41 Q2311.32 1466.51 2313.13 1470.08 Q2314.96 1473.62 2318.57 1473.62 Q2322.2 1473.62 2324.01 1470.08 Q2325.84 1466.51 2325.84 1459.41 Q2325.84 1452.28 2324.01 1448.74 Q2322.2 1445.17 2318.57 1445.17 M2318.57 1441.47 Q2324.38 1441.47 2327.43 1446.07 Q2330.51 1450.66 2330.51 1459.41 Q2330.51 1468.13 2327.43 1472.74 Q2324.38 1477.32 2318.57 1477.32 Q2312.76 1477.32 2309.68 1472.74 Q2306.62 1468.13 2306.62 1459.41 Q2306.62 1450.66 2309.68 1446.07 Q2312.76 1441.47 2318.57 1441.47 Z" fill="#000000" fill-rule="evenodd" fill-opacity="1" /><path clip-path="url(#clip6700)" d="M 0 0 M126.584 1192.6 L139.061 1192.6 L139.061 1196.4 L126.584 1196.4 L126.584 1192.6 Z" fill="#000000" fill-rule="evenodd" fill-opacity="1" /><path clip-path="url(#clip6700)" d="M 0 0 M154.709 1188.34 Q151.561 1188.34 149.709 1190.5 Q147.88 1192.65 147.88 1196.4 Q147.88 1200.13 149.709 1202.3 Q151.561 1204.45 154.709 1204.45 Q157.857 1204.45 159.686 1202.3 Q161.538 1200.13 161.538 1196.4 Q161.538 1192.65 159.686 1190.5 Q157.857 1188.34 154.709 1188.34 M163.991 1173.69 L163.991 1177.95 Q162.232 1177.12 160.427 1176.68 Q158.644 1176.24 156.885 1176.24 Q152.255 1176.24 149.802 1179.36 Q147.371 1182.49 147.024 1188.81 Q148.39 1186.79 150.45 1185.73 Q152.51 1184.64 154.987 1184.64 Q160.195 1184.64 163.204 1187.81 Q166.237 1190.96 166.237 1196.4 Q166.237 1201.72 163.089 1204.94 Q159.941 1208.16 154.709 1208.16 Q148.714 1208.16 145.542 1203.58 Q142.371 1198.97 142.371 1190.24 Q142.371 1182.05 146.26 1177.19 Q150.149 1172.3 156.7 1172.3 Q158.459 1172.3 160.241 1172.65 Q162.047 1173 163.991 1173.69 Z" fill="#000000" fill-rule="evenodd" fill-opacity="1" /><path clip-path="url(#clip6700)" d="M 0 0 M181.306 1176.01 Q177.695 1176.01 175.866 1179.57 Q174.061 1183.11 174.061 1190.24 Q174.061 1197.35 175.866 1200.91 Q177.695 1204.45 181.306 1204.45 Q184.94 1204.45 186.746 1200.91 Q188.575 1197.35 188.575 1190.24 Q188.575 1183.11 186.746 1179.57 Q184.94 1176.01 181.306 1176.01 M181.306 1172.3 Q187.116 1172.3 190.172 1176.91 Q193.251 1181.49 193.251 1190.24 Q193.251 1198.97 190.172 1203.58 Q187.116 1208.16 181.306 1208.16 Q175.496 1208.16 172.417 1203.58 Q169.362 1198.97 169.362 1190.24 Q169.362 1181.49 172.417 1176.91 Q175.496 1172.3 181.306 1172.3 Z" fill="#000000" fill-rule="evenodd" fill-opacity="1" /><path clip-path="url(#clip6700)" d="M 0 0 M127.742 828.431 L140.218 828.431 L140.218 832.227 L127.742 832.227 L127.742 828.431 Z" fill="#000000" fill-rule="evenodd" fill-opacity="1" /><path clip-path="url(#clip6700)" d="M 0 0 M145.334 808.755 L163.691 808.755 L163.691 812.69 L149.617 812.69 L149.617 821.162 Q150.635 820.815 151.654 820.653 Q152.672 820.468 153.691 820.468 Q159.478 820.468 162.857 823.639 Q166.237 826.81 166.237 832.227 Q166.237 837.806 162.765 840.907 Q159.292 843.986 152.973 843.986 Q150.797 843.986 148.529 843.616 Q146.283 843.245 143.876 842.505 L143.876 837.806 Q145.959 838.94 148.181 839.495 Q150.404 840.051 152.88 840.051 Q156.885 840.051 159.223 837.944 Q161.561 835.838 161.561 832.227 Q161.561 828.616 159.223 826.509 Q156.885 824.403 152.88 824.403 Q151.005 824.403 149.13 824.819 Q147.279 825.236 145.334 826.116 L145.334 808.755 Z" fill="#000000" fill-rule="evenodd" fill-opacity="1" /><path clip-path="url(#clip6700)" d="M 0 0 M181.306 811.833 Q177.695 811.833 175.866 815.398 Q174.061 818.94 174.061 826.069 Q174.061 833.176 175.866 836.741 Q177.695 840.282 181.306 840.282 Q184.94 840.282 186.746 836.741 Q188.575 833.176 188.575 826.069 Q188.575 818.94 186.746 815.398 Q184.94 811.833 181.306 811.833 M181.306 808.13 Q187.116 808.13 190.172 812.736 Q193.251 817.32 193.251 826.069 Q193.251 834.796 190.172 839.403 Q187.116 843.986 181.306 843.986 Q175.496 843.986 172.417 839.403 Q169.362 834.796 169.362 826.069 Q169.362 817.32 172.417 812.736 Q175.496 808.13 181.306 808.13 Z" fill="#000000" fill-rule="evenodd" fill-opacity="1" /><path clip-path="url(#clip6700)" d="M 0 0 M126.26 464.258 L138.737 464.258 L138.737 468.055 L126.26 468.055 L126.26 464.258 Z" fill="#000000" fill-rule="evenodd" fill-opacity="1" /><path clip-path="url(#clip6700)" d="M 0 0 M156.654 448.656 L144.848 467.105 L156.654 467.105 L156.654 448.656 M155.427 444.582 L161.306 444.582 L161.306 467.105 L166.237 467.105 L166.237 470.994 L161.306 470.994 L161.306 479.142 L156.654 479.142 L156.654 470.994 L141.052 470.994 L141.052 466.48 L155.427 444.582 Z" fill="#000000" fill-rule="evenodd" fill-opacity="1" /><path clip-path="url(#clip6700)" d="M 0 0 M181.306 447.661 Q177.695 447.661 175.866 451.226 Q174.061 454.768 174.061 461.897 Q174.061 469.004 175.866 472.568 Q177.695 476.11 181.306 476.11 Q184.94 476.11 186.746 472.568 Q188.575 469.004 188.575 461.897 Q188.575 454.768 186.746 451.226 Q184.94 447.661 181.306 447.661 M181.306 443.957 Q187.116 443.957 190.172 448.564 Q193.251 453.147 193.251 461.897 Q193.251 470.624 190.172 475.23 Q187.116 479.814 181.306 479.814 Q175.496 479.814 172.417 475.23 Q169.362 470.624 169.362 461.897 Q169.362 453.147 172.417 448.564 Q175.496 443.957 181.306 443.957 Z" fill="#000000" fill-rule="evenodd" fill-opacity="1" /><path clip-path="url(#clip6700)" d="M 0 0 M127.394 100.086 L139.871 100.086 L139.871 103.882 L127.394 103.882 L127.394 100.086 Z" fill="#000000" fill-rule="evenodd" fill-opacity="1" /><path clip-path="url(#clip6700)" d="M 0 0 M159.107 96.336 Q162.464 97.0535 164.339 99.3221 Q166.237 101.591 166.237 104.924 Q166.237 110.04 162.718 112.841 Q159.2 115.641 152.718 115.641 Q150.542 115.641 148.228 115.202 Q145.936 114.785 143.482 113.928 L143.482 109.415 Q145.427 110.549 147.742 111.128 Q150.056 111.706 152.579 111.706 Q156.978 111.706 159.269 109.97 Q161.584 108.234 161.584 104.924 Q161.584 101.868 159.431 100.155 Q157.302 98.4193 153.482 98.4193 L149.454 98.4193 L149.454 94.5767 L153.667 94.5767 Q157.116 94.5767 158.945 93.211 Q160.774 91.8221 160.774 89.2295 Q160.774 86.5675 158.876 85.1555 Q157.001 83.7203 153.482 83.7203 Q151.561 83.7203 149.362 84.137 Q147.163 84.5536 144.524 85.4332 L144.524 81.2666 Q147.186 80.5259 149.501 80.1555 Q151.839 79.7851 153.899 79.7851 Q159.223 79.7851 162.325 82.2157 Q165.427 84.6231 165.427 88.7434 Q165.427 91.6138 163.783 93.6045 Q162.14 95.5721 159.107 96.336 Z" fill="#000000" fill-rule="evenodd" fill-opacity="1" /><path clip-path="url(#clip6700)" d="M 0 0 M181.306 83.4888 Q177.695 83.4888 175.866 87.0536 Q174.061 90.5953 174.061 97.7248 Q174.061 104.831 175.866 108.396 Q177.695 111.938 181.306 111.938 Q184.94 111.938 186.746 108.396 Q188.575 104.831 188.575 97.7248 Q188.575 90.5953 186.746 87.0536 Q184.94 83.4888 181.306 83.4888 M181.306 79.7851 Q187.116 79.7851 190.172 84.3916 Q193.251 88.9749 193.251 97.7248 Q193.251 106.452 190.172 111.058 Q187.116 115.641 181.306 115.641 Q175.496 115.641 172.417 111.058 Q169.362 106.452 169.362 97.7248 Q169.362 88.9749 172.417 84.3916 Q175.496 79.7851 181.306 79.7851 Z" fill="#000000" fill-rule="evenodd" fill-opacity="1" /><path clip-path="url(#clip6700)" d="M 0 0 M1156.02 1510.27 L1156.02 1520.4 L1168.08 1520.4 L1168.08 1524.95 L1156.02 1524.95 L1156.02 1544.3 Q1156.02 1548.66 1157.2 1549.9 Q1158.41 1551.14 1162.07 1551.14 L1168.08 1551.14 L1168.08 1556.04 L1162.07 1556.04 Q1155.29 1556.04 1152.71 1553.53 Q1150.13 1550.98 1150.13 1544.3 L1150.13 1524.95 L1145.83 1524.95 L1145.83 1520.4 L1150.13 1520.4 L1150.13 1510.27 L1156.02 1510.27 Z" fill="#000000" fill-rule="evenodd" fill-opacity="1" /><path clip-path="url(#clip6700)" d="M 0 0 M1174.22 1520.4 L1180.08 1520.4 L1180.08 1556.04 L1174.22 1556.04 L1174.22 1520.4 M1174.22 1506.52 L1180.08 1506.52 L1180.08 1513.93 L1174.22 1513.93 L1174.22 1506.52 Z" fill="#000000" fill-rule="evenodd" fill-opacity="1" /><path clip-path="url(#clip6700)" d="M 0 0 M1213.98 1527.24 Q1216.17 1523.29 1219.23 1521.41 Q1222.29 1519.54 1226.42 1519.54 Q1231.99 1519.54 1235.02 1523.45 Q1238.04 1527.33 1238.04 1534.53 L1238.04 1556.04 L1232.15 1556.04 L1232.15 1534.72 Q1232.15 1529.59 1230.34 1527.11 Q1228.52 1524.63 1224.8 1524.63 Q1220.25 1524.63 1217.61 1527.65 Q1214.96 1530.68 1214.96 1535.9 L1214.96 1556.04 L1209.08 1556.04 L1209.08 1534.72 Q1209.08 1529.56 1207.26 1527.11 Q1205.45 1524.63 1201.66 1524.63 Q1197.17 1524.63 1194.53 1527.68 Q1191.89 1530.71 1191.89 1535.9 L1191.89 1556.04 L1186 1556.04 L1186 1520.4 L1191.89 1520.4 L1191.89 1525.93 Q1193.89 1522.66 1196.69 1521.1 Q1199.5 1519.54 1203.35 1519.54 Q1207.23 1519.54 1209.94 1521.51 Q1212.67 1523.48 1213.98 1527.24 Z" fill="#000000" fill-rule="evenodd" fill-opacity="1" /><path clip-path="url(#clip6700)" d="M 0 0 M1274.67 1536.76 L1274.67 1539.62 L1247.75 1539.62 Q1248.13 1545.67 1251.38 1548.85 Q1254.65 1552 1260.48 1552 Q1263.85 1552 1267 1551.17 Q1270.19 1550.35 1273.31 1548.69 L1273.31 1554.23 Q1270.16 1555.57 1266.85 1556.27 Q1263.53 1556.97 1260.13 1556.97 Q1251.6 1556.97 1246.6 1552 Q1241.64 1547.04 1241.64 1538.57 Q1241.64 1529.82 1246.35 1524.69 Q1251.09 1519.54 1259.11 1519.54 Q1266.3 1519.54 1270.47 1524.18 Q1274.67 1528.8 1274.67 1536.76 M1268.82 1535.04 Q1268.75 1530.23 1266.11 1527.37 Q1263.5 1524.5 1259.17 1524.5 Q1254.27 1524.5 1251.31 1527.27 Q1248.38 1530.04 1247.94 1535.07 L1268.82 1535.04 Z" fill="#000000" fill-rule="evenodd" fill-opacity="1" /><path clip-path="url(#clip6700)" d="M 0 0 M1315.61 1506.58 Q1311.34 1513.9 1309.27 1521.06 Q1307.2 1528.23 1307.2 1535.58 Q1307.2 1542.93 1309.27 1550.16 Q1311.37 1557.35 1315.61 1564.64 L1310.51 1564.64 Q1305.74 1557.16 1303.35 1549.93 Q1301 1542.71 1301 1535.58 Q1301 1528.48 1303.35 1521.29 Q1305.71 1514.09 1310.51 1506.58 L1315.61 1506.58 Z" fill="#000000" fill-rule="evenodd" fill-opacity="1" /><path clip-path="url(#clip6700)" d="M 0 0 M1349.5 1527.24 Q1351.7 1523.29 1354.76 1521.41 Q1357.81 1519.54 1361.95 1519.54 Q1367.52 1519.54 1370.54 1523.45 Q1373.57 1527.33 1373.57 1534.53 L1373.57 1556.04 L1367.68 1556.04 L1367.68 1534.72 Q1367.68 1529.59 1365.86 1527.11 Q1364.05 1524.63 1360.33 1524.63 Q1355.77 1524.63 1353.13 1527.65 Q1350.49 1530.68 1350.49 1535.9 L1350.49 1556.04 L1344.6 1556.04 L1344.6 1534.72 Q1344.6 1529.56 1342.79 1527.11 Q1340.97 1524.63 1337.19 1524.63 Q1332.7 1524.63 1330.06 1527.68 Q1327.41 1530.71 1327.41 1535.9 L1327.41 1556.04 L1321.53 1556.04 L1321.53 1520.4 L1327.41 1520.4 L1327.41 1525.93 Q1329.42 1522.66 1332.22 1521.1 Q1335.02 1519.54 1338.87 1519.54 Q1342.76 1519.54 1345.46 1521.51 Q1348.2 1523.48 1349.5 1527.24 Z" fill="#000000" fill-rule="evenodd" fill-opacity="1" /><path clip-path="url(#clip6700)" d="M 0 0 M1402.43 1521.45 L1402.43 1526.98 Q1399.95 1525.71 1397.28 1525.07 Q1394.6 1524.44 1391.74 1524.44 Q1387.38 1524.44 1385.18 1525.77 Q1383.02 1527.11 1383.02 1529.79 Q1383.02 1531.82 1384.58 1533 Q1386.14 1534.15 1390.85 1535.2 L1392.85 1535.64 Q1399.09 1536.98 1401.7 1539.43 Q1404.34 1541.85 1404.34 1546.21 Q1404.34 1551.17 1400.4 1554.07 Q1396.48 1556.97 1389.61 1556.97 Q1386.74 1556.97 1383.62 1556.39 Q1380.54 1555.85 1377.1 1554.74 L1377.1 1548.69 Q1380.35 1550.38 1383.5 1551.24 Q1386.65 1552.07 1389.74 1552.07 Q1393.87 1552.07 1396.1 1550.66 Q1398.33 1549.23 1398.33 1546.65 Q1398.33 1544.27 1396.71 1542.99 Q1395.11 1541.72 1389.67 1540.54 L1387.63 1540.07 Q1382.19 1538.92 1379.77 1536.56 Q1377.35 1534.18 1377.35 1530.04 Q1377.35 1525.01 1380.92 1522.27 Q1384.48 1519.54 1391.04 1519.54 Q1394.29 1519.54 1397.15 1520.01 Q1400.02 1520.49 1402.43 1521.45 Z" fill="#000000" fill-rule="evenodd" fill-opacity="1" /><path clip-path="url(#clip6700)" d="M 0 0 M1409.56 1506.58 L1414.66 1506.58 Q1419.43 1514.09 1421.79 1521.29 Q1424.17 1528.48 1424.17 1535.58 Q1424.17 1542.71 1421.79 1549.93 Q1419.43 1557.16 1414.66 1564.64 L1409.56 1564.64 Q1413.8 1557.35 1415.87 1550.16 Q1417.97 1542.93 1417.97 1535.58 Q1417.97 1528.23 1415.87 1521.06 Q1413.8 1513.9 1409.56 1506.58 Z" fill="#000000" fill-rule="evenodd" fill-opacity="1" /><path clip-path="url(#clip6700)" d="M 0 0 M52.3562 841.774 L52.3562 835.567 L82.275 824.427 L52.3562 813.287 L52.3562 807.081 L88.0042 820.449 L88.0042 828.406 L52.3562 841.774 Z" fill="#000000" fill-rule="evenodd" fill-opacity="1" /><path clip-path="url(#clip6700)" d="M 0 0 M56.4621 787.124 Q56.4621 791.835 60.1542 794.572 Q63.8145 797.309 70.212 797.309 Q76.6095 797.309 80.3017 794.604 Q83.9619 791.867 83.9619 787.124 Q83.9619 782.446 80.2698 779.708 Q76.5777 776.971 70.212 776.971 Q63.8781 776.971 60.186 779.708 Q56.4621 782.446 56.4621 787.124 M51.4968 787.124 Q51.4968 779.485 56.4621 775.125 Q61.4273 770.764 70.212 770.764 Q78.9649 770.764 83.9619 775.125 Q88.9272 779.485 88.9272 787.124 Q88.9272 794.795 83.9619 799.155 Q78.9649 803.484 70.212 803.484 Q61.4273 803.484 56.4621 799.155 Q51.4968 794.795 51.4968 787.124 Z" fill="#000000" fill-rule="evenodd" fill-opacity="1" /><path clip-path="url(#clip6700)" d="M 0 0 M38.479 764.622 L38.479 758.765 L88.0042 758.765 L88.0042 764.622 L38.479 764.622 Z" fill="#000000" fill-rule="evenodd" fill-opacity="1" /><path clip-path="url(#clip6700)" d="M 0 0 M42.2347 746.829 L52.3562 746.829 L52.3562 734.766 L56.9077 734.766 L56.9077 746.829 L76.2594 746.829 Q80.6199 746.829 81.8613 745.652 Q83.1026 744.442 83.1026 740.782 L83.1026 734.766 L88.0042 734.766 L88.0042 740.782 Q88.0042 747.561 85.4897 750.14 Q82.9434 752.718 76.2594 752.718 L56.9077 752.718 L56.9077 757.015 L52.3562 757.015 L52.3562 752.718 L42.2347 752.718 L42.2347 746.829 Z" fill="#000000" fill-rule="evenodd" fill-opacity="1" /><path clip-path="url(#clip6700)" d="M 0 0 M70.0847 712.423 Q70.0847 719.521 71.7079 722.258 Q73.3312 724.995 77.2461 724.995 Q80.3653 724.995 82.2114 722.958 Q84.0256 720.889 84.0256 717.356 Q84.0256 712.486 80.5881 709.558 Q77.1188 706.598 71.3897 706.598 L70.0847 706.598 L70.0847 712.423 M67.6657 700.742 L88.0042 700.742 L88.0042 706.598 L82.5933 706.598 Q85.8398 708.603 87.3994 711.595 Q88.9272 714.587 88.9272 718.916 Q88.9272 724.39 85.8716 727.637 Q82.7843 730.851 77.6281 730.851 Q71.6125 730.851 68.5569 726.841 Q65.5014 722.799 65.5014 714.81 L65.5014 706.598 L64.9285 706.598 Q60.8862 706.598 58.6901 709.272 Q56.4621 711.913 56.4621 716.72 Q56.4621 719.775 57.1941 722.672 Q57.9262 725.568 59.3903 728.242 L53.9795 728.242 Q52.7381 725.027 52.1334 722.003 Q51.4968 718.979 51.4968 716.115 Q51.4968 708.381 55.5072 704.561 Q59.5176 700.742 67.6657 700.742 Z" fill="#000000" fill-rule="evenodd" fill-opacity="1" /><path clip-path="url(#clip6700)" d="M 0 0 M69.7664 671.141 Q63.4007 671.141 59.8996 673.783 Q56.3984 676.393 56.3984 681.135 Q56.3984 685.846 59.8996 688.488 Q63.4007 691.098 69.7664 691.098 Q76.1003 691.098 79.6014 688.488 Q83.1026 685.846 83.1026 681.135 Q83.1026 676.393 79.6014 673.783 Q76.1003 671.141 69.7664 671.141 M83.58 665.285 Q92.683 665.285 97.1071 669.327 Q101.563 673.369 101.563 681.708 Q101.563 684.796 101.086 687.533 Q100.64 690.27 99.6852 692.848 L93.9879 692.848 Q95.3884 690.27 96.0568 687.756 Q96.7252 685.241 96.7252 682.631 Q96.7252 676.87 93.7015 674.006 Q90.7096 671.141 84.6303 671.141 L81.7339 671.141 Q84.885 672.955 86.4446 675.788 Q88.0042 678.621 88.0042 682.568 Q88.0042 689.124 83.0071 693.135 Q78.01 697.145 69.7664 697.145 Q61.491 697.145 56.4939 693.135 Q51.4968 689.124 51.4968 682.568 Q51.4968 678.621 53.0564 675.788 Q54.616 672.955 57.7671 671.141 L52.3562 671.141 L52.3562 665.285 L83.58 665.285 Z" fill="#000000" fill-rule="evenodd" fill-opacity="1" /><path clip-path="url(#clip6700)" d="M 0 0 M68.7161 628.65 L71.5806 628.65 L71.5806 655.577 Q77.6281 655.195 80.8109 651.949 Q83.9619 648.67 83.9619 642.846 Q83.9619 639.472 83.1344 636.321 Q82.3069 633.138 80.6518 630.019 L86.1899 630.019 Q87.5267 633.17 88.227 636.48 Q88.9272 639.79 88.9272 643.196 Q88.9272 651.726 83.9619 656.723 Q78.9967 661.688 70.5303 661.688 Q61.7774 661.688 56.6531 656.977 Q51.4968 652.235 51.4968 644.214 Q51.4968 637.021 56.1438 632.851 Q60.7589 628.65 68.7161 628.65 M66.9973 634.506 Q62.1912 634.57 59.3266 637.212 Q56.4621 639.822 56.4621 644.151 Q56.4621 649.052 59.2312 652.012 Q62.0002 654.94 67.0292 655.386 L66.9973 634.506 Z" fill="#000000" fill-rule="evenodd" fill-opacity="1" /><polyline clip-path="url(#clip6702)" style="stroke:#009af9; stroke-width:4; stroke-opacity:1; fill:none" points="
  277.689,1372.29 281.727,1372.29 285.764,1375.18 289.801,1377.78 293.839,1379.7 297.876,1381.07 301.913,1382.02 305.951,1382.69 309.988,1383.15 314.025,1383.48 
  318.063,1019.53 322.1,878.591 326.137,784.967 330.175,710.719 334.212,644.988 338.249,581.735 342.287,516.38 346.324,444.23 350.361,359.123 354.399,251.377 
  358.436,103.554 362.473,1372.29 366.511,1014.87 370.548,874.089 374.585,780.39 378.623,705.983 382.66,639.987 386.697,576.307 390.735,510.271 394.772,437.038 
  398.809,350.181 402.847,239.494 406.884,86.3996 410.921,1372.29 414.959,1014.83 418.996,874.045 423.033,780.34 427.071,705.929 431.108,639.929 435.145,576.242 
  439.183,510.197 443.22,436.951 447.257,350.072 451.295,239.348 455.332,86.1886 459.369,1372.29 463.407,1014.83 467.444,874.044 471.481,780.34 475.519,705.928 
  479.556,639.928 483.593,576.241 487.631,510.196 491.668,436.95 495.705,350.071 499.743,239.346 503.78,86.1857 507.817,1372.29 511.855,1014.83 515.892,874.044 
  519.929,780.34 523.967,705.928 528.004,639.928 532.041,576.241 536.078,510.196 540.116,436.95 544.153,350.071 548.19,239.346 552.228,86.1857 556.265,1372.29 
  560.302,1014.83 564.34,874.044 568.377,780.34 572.414,705.928 576.452,639.928 580.489,576.241 584.526,510.196 588.564,436.95 592.601,350.071 596.638,239.346 
  600.676,86.1857 604.713,1372.29 608.75,1014.83 612.788,874.044 616.825,780.34 620.862,705.928 624.9,639.928 628.937,576.241 632.974,510.196 637.012,436.95 
  641.049,350.071 645.086,239.346 649.124,86.1857 653.161,1372.29 657.198,1014.83 661.236,874.044 665.273,780.34 669.31,705.928 673.348,639.928 677.385,576.241 
  681.422,510.196 685.46,801.122 689.497,1088.38 693.534,1280.78 697.572,1358.96 701.609,1379.12 705.646,1383.24 709.684,1384.03 713.721,1384.18 717.758,1384.22 
  721.796,1384.23 725.833,1384.23 729.87,1384.23 733.908,1384.23 737.945,1384.24 741.982,1384.24 746.02,1384.24 750.057,1384.24 754.094,1384.24 758.132,1384.24 
  762.169,1384.24 766.206,1384.24 770.244,1384.24 774.281,1384.24 778.318,1384.24 782.356,1384.24 786.393,1384.24 790.43,1384.24 794.468,1384.24 798.505,1384.24 
  802.542,1384.24 806.58,1384.24 810.617,1384.24 814.654,1384.24 818.692,1384.24 822.729,1384.24 826.766,1384.24 830.804,1384.24 834.841,1384.24 838.878,1384.24 
  842.916,1384.24 846.953,1384.24 850.99,1384.24 855.028,1384.24 859.065,1384.24 863.102,1384.24 867.14,1384.24 871.177,1384.24 875.214,1384.24 879.252,1384.24 
  883.289,1384.24 887.326,1384.24 891.364,1384.24 895.401,1384.24 899.438,1384.24 903.476,1384.24 907.513,1384.24 911.55,1384.24 915.588,1384.24 919.625,1384.24 
  923.662,1384.24 927.7,1384.24 931.737,1384.24 935.774,1384.24 939.812,1384.24 943.849,1384.24 947.886,1384.24 951.923,1384.24 955.961,1384.24 959.998,1384.24 
  964.035,1384.24 968.073,1384.24 972.11,1384.24 976.147,1384.24 980.185,1384.24 984.222,1384.24 988.259,1384.24 992.297,1384.24 996.334,1384.24 1000.37,1384.24 
  1004.41,1384.24 1008.45,1384.24 1012.48,1384.24 1016.52,1384.24 1020.56,1384.24 1024.6,1384.24 1028.63,1384.24 1032.67,1384.24 1036.71,1384.24 1040.74,1384.24 
  1044.78,1384.24 1048.82,1384.24 1052.86,1384.24 1056.89,1384.24 1060.93,1384.24 1064.97,1384.24 1069.01,1384.24 1073.04,1384.24 1077.08,1384.24 1081.12,1384.24 
  1085.16,1020.07 1089.19,879.175 1093.23,785.591 1097.27,711.38 1101.3,645.693 1105.34,582.505 1109.38,517.248 1113.42,445.25 1117.45,360.389 1121.49,253.054 
  1125.53,105.964 1129.57,1372.29 1133.6,1014.87 1137.64,874.096 1141.68,780.398 1145.72,705.992 1149.75,639.996 1153.79,576.317 1157.83,510.282 1161.86,437.052 
  1165.9,350.198 1169.94,239.516 1173.98,86.4325 1178.01,1372.29 1182.05,1014.83 1186.09,874.045 1190.13,780.341 1194.16,705.929 1198.2,639.929 1202.24,576.242 
  1206.28,510.198 1210.31,436.951 1214.35,350.073 1218.39,239.349 1222.42,86.1891 1226.46,1372.29 1230.5,1014.83 1234.54,874.044 1238.57,780.34 1242.61,705.928 
  1246.65,639.928 1250.69,576.241 1254.72,510.196 1258.76,436.95 1262.8,350.071 1266.84,239.346 1270.87,86.1857 1274.91,1372.29 1278.95,1014.83 1282.98,874.044 
  1287.02,780.34 1291.06,705.928 1295.1,639.928 1299.13,576.241 1303.17,510.196 1307.21,436.95 1311.25,350.071 1315.28,239.346 1319.32,86.1857 1323.36,1372.29 
  1327.4,1014.83 1331.43,874.044 1335.47,780.34 1339.51,705.928 1343.54,639.928 1347.58,576.241 1351.62,510.196 1355.66,436.95 1359.69,350.071 1363.73,239.346 
  1367.77,86.1857 1371.81,1372.29 1375.84,1014.83 1379.88,874.044 1383.92,780.34 1387.96,705.928 1391.99,639.928 1396.03,576.241 1400.07,510.196 1404.1,436.95 
  1408.14,350.071 1412.18,239.346 1416.22,86.1857 1420.25,1372.29 1424.29,1014.83 1428.33,874.044 1432.37,780.34 1436.4,705.928 1440.44,639.928 1444.48,576.241 
  1448.52,510.196 1452.55,436.95 1456.59,350.071 1460.63,239.346 1464.66,86.1857 1468.7,1372.29 1472.74,1014.83 1476.78,874.044 1480.81,780.34 1484.85,705.928 
  1488.89,639.928 1492.93,940.414 1496.96,1192.79 1501,1328.11 1505.04,1371.86 1509.08,1381.73 1513.11,1383.69 1517.15,1384.08 1521.19,1384.17 1525.22,1384.2 
  1529.26,1384.21 1533.3,1384.22 1537.34,1384.23 1541.37,1384.23 1545.41,1384.23 1549.45,1384.23 1553.49,1384.24 1557.52,1384.24 1561.56,1384.24 1565.6,1384.24 
  1569.63,1384.24 1573.67,1384.24 1577.71,1384.24 1581.75,1384.24 1585.78,1384.24 1589.82,1384.24 1593.86,1384.24 1597.9,1384.24 1601.93,1384.24 1605.97,1384.24 
  1610.01,1384.24 1614.05,1384.24 1618.08,1384.24 1622.12,1384.24 1626.16,1384.24 1630.19,1384.24 1634.23,1384.24 1638.27,1384.24 1642.31,1384.24 1646.34,1384.24 
  1650.38,1384.24 1654.42,1384.24 1658.46,1384.24 1662.49,1384.24 1666.53,1384.24 1670.57,1384.24 1674.61,1384.24 1678.64,1384.24 1682.68,1384.24 1686.72,1384.24 
  1690.75,1384.24 1694.79,1384.24 1698.83,1384.24 1702.87,1384.24 1706.9,1384.24 1710.94,1384.24 1714.98,1384.24 1719.02,1384.24 1723.05,1384.24 1727.09,1384.24 
  1731.13,1384.24 1735.17,1384.24 1739.2,1384.24 1743.24,1384.24 1747.28,1384.24 1751.31,1384.24 1755.35,1384.24 1759.39,1384.24 1763.43,1384.24 1767.46,1384.24 
  1771.5,1384.24 1775.54,1384.24 1779.58,1384.24 1783.61,1384.24 1787.65,1384.24 1791.69,1384.24 1795.73,1384.24 1799.76,1384.24 1803.8,1384.24 1807.84,1384.24 
  1811.87,1384.24 1815.91,1384.24 1819.95,1384.24 1823.99,1384.24 1828.02,1384.24 1832.06,1384.24 1836.1,1384.24 1840.14,1384.24 1844.17,1384.24 1848.21,1384.24 
  1852.25,1384.24 1856.29,1384.24 1860.32,1384.24 1864.36,1384.24 1868.4,1384.24 1872.43,1384.24 1876.47,1384.24 1880.51,1384.24 1884.55,1384.24 1888.58,1384.24 
  1892.62,1020.07 1896.66,879.175 1900.7,785.591 1904.73,711.38 1908.77,645.693 1912.81,582.505 1916.85,517.248 1920.88,445.25 1924.92,360.389 1928.96,253.054 
  1932.99,105.964 1937.03,1372.29 1941.07,1014.87 1945.11,874.096 1949.14,780.398 1953.18,705.992 1957.22,639.996 1961.26,576.317 1965.29,510.282 1969.33,437.052 
  1973.37,350.198 1977.41,239.516 1981.44,86.4325 1985.48,1372.29 1989.52,1014.83 1993.55,874.045 1997.59,780.341 2001.63,705.929 2005.67,639.929 2009.7,576.242 
  2013.74,510.198 2017.78,436.951 2021.82,350.073 2025.85,239.349 2029.89,86.1891 2033.93,1372.29 2037.97,1014.83 2042,874.044 2046.04,780.34 2050.08,705.928 
  2054.11,639.928 2058.15,576.241 2062.19,510.196 2066.23,436.95 2070.26,350.071 2074.3,239.346 2078.34,86.1857 2082.38,1372.29 2086.41,1014.83 2090.45,874.044 
  2094.49,780.34 2098.53,705.928 2102.56,639.928 2106.6,576.241 2110.64,510.196 2114.67,436.95 2118.71,350.071 2122.75,239.346 2126.79,86.1857 2130.82,1372.29 
  2134.86,1014.83 2138.9,874.044 2142.94,780.34 2146.97,705.928 2151.01,639.928 2155.05,576.241 2159.09,510.196 2163.12,436.95 2167.16,350.071 2171.2,239.346 
  2175.23,86.1857 2179.27,1372.29 2183.31,1014.83 2187.35,874.044 2191.38,780.34 2195.42,705.928 2199.46,639.928 2203.5,576.241 2207.53,510.196 2211.57,436.95 
  2215.61,350.071 2219.65,239.346 2223.68,86.1857 2227.72,1372.29 2231.76,1014.83 2235.79,874.044 2239.83,780.34 2243.87,705.928 2247.91,639.928 2251.94,576.241 
  2255.98,510.196 2260.02,436.95 2264.06,350.071 2268.09,239.346 2272.13,86.1857 2276.17,1372.29 2280.21,1014.83 2284.24,874.044 2288.28,780.34 2292.32,705.928 
  
  "/>
</svg>
