<?xml version="1.0" encoding="utf-8"?>
<svg xmlns="http://www.w3.org/2000/svg" xmlns:xlink="http://www.w3.org/1999/xlink" width="600" height="400" viewBox="0 0 2400 1600">
<defs>
  <clipPath id="clip7000">
    <rect x="0" y="0" width="2400" height="1600"/>
  </clipPath>
</defs>
<path clip-path="url(#clip7000)" d="
M0 1600 L2400 1600 L2400 0 L0 0  Z
  " fill="#ffffff" fill-rule="evenodd" fill-opacity="1"/>
<defs>
  <clipPath id="clip7001">
    <rect x="480" y="0" width="1681" height="1600"/>
  </clipPath>
</defs>
<path clip-path="url(#clip7000)" d="
M217.251 1423.18 L2352.76 1423.18 L2352.76 47.2441 L217.251 47.2441  Z
  " fill="#ffffff" fill-rule="evenodd" fill-opacity="1"/>
<defs>
  <clipPath id="clip7002">
    <rect x="217" y="47" width="2137" height="1377"/>
  </clipPath>
</defs>
<polyline clip-path="url(#clip7000)" style="stroke:#000000; stroke-width:4; stroke-opacity:1; fill:none" points="
  217.251,1423.18 2352.76,1423.18 
  "/>
<polyline clip-path="url(#clip7000)" style="stroke:#000000; stroke-width:4; stroke-opacity:1; fill:none" points="
  217.251,1423.18 217.251,47.2441 
  "/>
<polyline clip-path="url(#clip7000)" style="stroke:#000000; stroke-width:4; stroke-opacity:1; fill:none" points="
  275.673,1423.18 275.673,1406.67 
  "/>
<polyline clip-path="url(#clip7000)" style="stroke:#000000; stroke-width:4; stroke-opacity:1; fill:none" points="
  779.834,1423.18 779.834,1406.67 
  "/>
<polyline clip-path="url(#clip7000)" style="stroke:#000000; stroke-width:4; stroke-opacity:1; fill:none" points="
  1283.99,1423.18 1283.99,1406.67 
  "/>
<polyline clip-path="url(#clip7000)" style="stroke:#000000; stroke-width:4; stroke-opacity:1; fill:none" points="
  1788.16,1423.18 1788.16,1406.67 
  "/>
<polyline clip-path="url(#clip7000)" style="stroke:#000000; stroke-width:4; stroke-opacity:1; fill:none" points="
  2292.32,1423.18 2292.32,1406.67 
  "/>
<polyline clip-path="url(#clip7000)" style="stroke:#000000; stroke-width:4; stroke-opacity:1; fill:none" points="
  217.251,1201.33 242.877,1201.33 
  "/>
<polyline clip-path="url(#clip7000)" style="stroke:#000000; stroke-width:4; stroke-opacity:1; fill:none" points="
  217.251,841.078 242.877,841.078 
  "/>
<polyline clip-path="url(#clip7000)" style="stroke:#000000; stroke-width:4; stroke-opacity:1; fill:none" points="
  217.251,480.824 242.877,480.824 
  "/>
<polyline clip-path="url(#clip7000)" style="stroke:#000000; stroke-width:4; stroke-opacity:1; fill:none" points="
  217.251,120.57 242.877,120.57 
  "/>
<path clip-path="url(#clip7000)" d="M 0 0 M275.673 1445.17 Q272.062 1445.17 270.233 1448.74 Q268.427 1452.28 268.427 1459.41 Q268.427 1466.51 270.233 1470.08 Q272.062 1473.62 275.673 1473.62 Q279.307 1473.62 281.113 1470.08 Q282.941 1466.51 282.941 1459.41 Q282.941 1452.28 281.113 1448.74 Q279.307 1445.17 275.673 1445.17 M275.673 1441.47 Q281.483 1441.47 284.538 1446.07 Q287.617 1450.66 287.617 1459.41 Q287.617 1468.13 284.538 1472.74 Q281.483 1477.32 275.673 1477.32 Q269.863 1477.32 266.784 1472.74 Q263.728 1468.13 263.728 1459.41 Q263.728 1450.66 266.784 1446.07 Q269.863 1441.47 275.673 1441.47 Z" fill="#000000" fill-rule="evenodd" fill-opacity="1" /><path clip-path="url(#clip7000)" d="M 0 0 M747.971 1472.72 L764.29 1472.72 L764.29 1476.65 L742.346 1476.65 L742.346 1472.72 Q745.008 1469.96 749.591 1465.33 Q754.197 1460.68 755.378 1459.34 Q757.623 1456.81 758.503 1455.08 Q759.406 1453.32 759.406 1451.63 Q759.406 1448.87 757.461 1447.14 Q755.54 1445.4 752.438 1445.4 Q750.239 1445.4 747.785 1446.17 Q745.355 1446.93 742.577 1448.48 L742.577 1443.76 Q745.401 1442.62 747.855 1442.05 Q750.309 1441.47 752.346 1441.47 Q757.716 1441.47 760.91 1444.15 Q764.105 1446.84 764.105 1451.33 Q764.105 1453.46 763.295 1455.38 Q762.508 1457.28 760.401 1459.87 Q759.822 1460.54 756.721 1463.76 Q753.619 1466.95 747.971 1472.72 Z" fill="#000000" fill-rule="evenodd" fill-opacity="1" /><path clip-path="url(#clip7000)" d="M 0 0 M769.406 1442.09 L787.762 1442.09 L787.762 1446.03 L773.688 1446.03 L773.688 1454.5 Q774.707 1454.15 775.725 1453.99 Q776.744 1453.8 777.762 1453.8 Q783.549 1453.8 786.929 1456.98 Q790.308 1460.15 790.308 1465.56 Q790.308 1471.14 786.836 1474.24 Q783.364 1477.32 777.044 1477.32 Q774.869 1477.32 772.6 1476.95 Q770.355 1476.58 767.947 1475.84 L767.947 1471.14 Q770.031 1472.28 772.253 1472.83 Q774.475 1473.39 776.952 1473.39 Q780.956 1473.39 783.294 1471.28 Q785.632 1469.18 785.632 1465.56 Q785.632 1461.95 783.294 1459.85 Q780.956 1457.74 776.952 1457.74 Q775.077 1457.74 773.202 1458.16 Q771.35 1458.57 769.406 1459.45 L769.406 1442.09 Z" fill="#000000" fill-rule="evenodd" fill-opacity="1" /><path clip-path="url(#clip7000)" d="M 0 0 M805.378 1445.17 Q801.767 1445.17 799.938 1448.74 Q798.132 1452.28 798.132 1459.41 Q798.132 1466.51 799.938 1470.08 Q801.767 1473.62 805.378 1473.62 Q809.012 1473.62 810.817 1470.08 Q812.646 1466.51 812.646 1459.41 Q812.646 1452.28 810.817 1448.74 Q809.012 1445.17 805.378 1445.17 M805.378 1441.47 Q811.188 1441.47 814.243 1446.07 Q817.322 1450.66 817.322 1459.41 Q817.322 1468.13 814.243 1472.74 Q811.188 1477.32 805.378 1477.32 Q799.568 1477.32 796.489 1472.74 Q793.433 1468.13 793.433 1459.41 Q793.433 1450.66 796.489 1446.07 Q799.568 1441.47 805.378 1441.47 Z" fill="#000000" fill-rule="evenodd" fill-opacity="1" /><path clip-path="url(#clip7000)" d="M 0 0 M1247.26 1442.09 L1265.62 1442.09 L1265.62 1446.03 L1251.54 1446.03 L1251.54 1454.5 Q1252.56 1454.15 1253.58 1453.99 Q1254.6 1453.8 1255.62 1453.8 Q1261.4 1453.8 1264.78 1456.98 Q1268.16 1460.15 1268.16 1465.56 Q1268.16 1471.14 1264.69 1474.24 Q1261.22 1477.32 1254.9 1477.32 Q1252.72 1477.32 1250.45 1476.95 Q1248.21 1476.58 1245.8 1475.84 L1245.8 1471.14 Q1247.88 1472.28 1250.11 1472.83 Q1252.33 1473.39 1254.81 1473.39 Q1258.81 1473.39 1261.15 1471.28 Q1263.49 1469.18 1263.49 1465.56 Q1263.49 1461.95 1261.15 1459.85 Q1258.81 1457.74 1254.81 1457.74 Q1252.93 1457.74 1251.06 1458.16 Q1249.2 1458.57 1247.26 1459.45 L1247.26 1442.09 Z" fill="#000000" fill-rule="evenodd" fill-opacity="1" /><path clip-path="url(#clip7000)" d="M 0 0 M1283.23 1445.17 Q1279.62 1445.17 1277.79 1448.74 Q1275.99 1452.28 1275.99 1459.41 Q1275.99 1466.51 1277.79 1470.08 Q1279.62 1473.62 1283.23 1473.62 Q1286.87 1473.62 1288.67 1470.08 Q1290.5 1466.51 1290.5 1459.41 Q1290.5 1452.28 1288.67 1448.74 Q1286.87 1445.17 1283.23 1445.17 M1283.23 1441.47 Q1289.04 1441.47 1292.1 1446.07 Q1295.18 1450.66 1295.18 1459.41 Q1295.18 1468.13 1292.1 1472.74 Q1289.04 1477.32 1283.23 1477.32 Q1277.42 1477.32 1274.34 1472.74 Q1271.29 1468.13 1271.29 1459.41 Q1271.29 1450.66 1274.34 1446.07 Q1277.42 1441.47 1283.23 1441.47 Z" fill="#000000" fill-rule="evenodd" fill-opacity="1" /><path clip-path="url(#clip7000)" d="M 0 0 M1310.24 1445.17 Q1306.63 1445.17 1304.8 1448.74 Q1303 1452.28 1303 1459.41 Q1303 1466.51 1304.8 1470.08 Q1306.63 1473.62 1310.24 1473.62 Q1313.88 1473.62 1315.68 1470.08 Q1317.51 1466.51 1317.51 1459.41 Q1317.51 1452.28 1315.68 1448.74 Q1313.88 1445.17 1310.24 1445.17 M1310.24 1441.47 Q1316.05 1441.47 1319.11 1446.07 Q1322.19 1450.66 1322.19 1459.41 Q1322.19 1468.13 1319.11 1472.74 Q1316.05 1477.32 1310.24 1477.32 Q1304.43 1477.32 1301.36 1472.74 Q1298.3 1468.13 1298.3 1459.41 Q1298.3 1450.66 1301.36 1446.07 Q1304.43 1441.47 1310.24 1441.47 Z" fill="#000000" fill-rule="evenodd" fill-opacity="1" /><path clip-path="url(#clip7000)" d="M 0 0 M1750.53 1442.09 L1772.75 1442.09 L1772.75 1444.08 L1760.2 1476.65 L1755.32 1476.65 L1767.13 1446.03 L1750.53 1446.03 L1750.53 1442.09 Z" fill="#000000" fill-rule="evenodd" fill-opacity="1" /><path clip-path="url(#clip7000)" d="M 0 0 M1777.87 1442.09 L1796.22 1442.09 L1796.22 1446.03 L1782.15 1446.03 L1782.15 1454.5 Q1783.17 1454.15 1784.19 1453.99 Q1785.2 1453.8 1786.22 1453.8 Q1792.01 1453.8 1795.39 1456.98 Q1798.77 1460.15 1798.77 1465.56 Q1798.77 1471.14 1795.3 1474.24 Q1791.82 1477.32 1785.51 1477.32 Q1783.33 1477.32 1781.06 1476.95 Q1778.82 1476.58 1776.41 1475.84 L1776.41 1471.14 Q1778.49 1472.28 1780.71 1472.83 Q1782.94 1473.39 1785.41 1473.39 Q1789.42 1473.39 1791.76 1471.28 Q1794.09 1469.18 1794.09 1465.56 Q1794.09 1461.95 1791.76 1459.85 Q1789.42 1457.74 1785.41 1457.74 Q1783.54 1457.74 1781.66 1458.16 Q1779.81 1458.57 1777.87 1459.45 L1777.87 1442.09 Z" fill="#000000" fill-rule="evenodd" fill-opacity="1" /><path clip-path="url(#clip7000)" d="M 0 0 M1813.84 1445.17 Q1810.23 1445.17 1808.4 1448.74 Q1806.59 1452.28 1806.59 1459.41 Q1806.59 1466.51 1808.4 1470.08 Q1810.23 1473.62 1813.84 1473.62 Q1817.47 1473.62 1819.28 1470.08 Q1821.11 1466.51 1821.11 1459.41 Q1821.11 1452.28 1819.28 1448.74 Q1817.47 1445.17 1813.84 1445.17 M1813.84 1441.47 Q1819.65 1441.47 1822.7 1446.07 Q1825.78 1450.66 1825.78 1459.41 Q1825.78 1468.13 1822.7 1472.74 Q1819.65 1477.32 1813.84 1477.32 Q1808.03 1477.32 1804.95 1472.74 Q1801.89 1468.13 1801.89 1459.41 Q1801.89 1450.66 1804.95 1446.07 Q1808.03 1441.47 1813.84 1441.47 Z" fill="#000000" fill-rule="evenodd" fill-opacity="1" /><path clip-path="url(#clip7000)" d="M 0 0 M2242.18 1472.72 L2249.82 1472.72 L2249.82 1446.35 L2241.51 1448.02 L2241.51 1443.76 L2249.77 1442.09 L2254.45 1442.09 L2254.45 1472.72 L2262.09 1472.72 L2262.09 1476.65 L2242.18 1476.65 L2242.18 1472.72 Z" fill="#000000" fill-rule="evenodd" fill-opacity="1" /><path clip-path="url(#clip7000)" d="M 0 0 M2277.16 1445.17 Q2273.54 1445.17 2271.72 1448.74 Q2269.91 1452.28 2269.91 1459.41 Q2269.91 1466.51 2271.72 1470.08 Q2273.54 1473.62 2277.16 1473.62 Q2280.79 1473.62 2282.59 1470.08 Q2284.42 1466.51 2284.42 1459.41 Q2284.42 1452.28 2282.59 1448.74 Q2280.79 1445.17 2277.16 1445.17 M2277.16 1441.47 Q2282.97 1441.47 2286.02 1446.07 Q2289.1 1450.66 2289.1 1459.41 Q2289.1 1468.13 2286.02 1472.74 Q2282.97 1477.32 2277.16 1477.32 Q2271.34 1477.32 2268.27 1472.74 Q2265.21 1468.13 2265.21 1459.41 Q2265.21 1450.66 2268.27 1446.07 Q2271.34 1441.47 2277.16 1441.47 Z" fill="#000000" fill-rule="evenodd" fill-opacity="1" /><path clip-path="url(#clip7000)" d="M 0 0 M2304.17 1445.17 Q2300.56 1445.17 2298.73 1448.74 Q2296.92 1452.28 2296.92 1459.41 Q2296.92 1466.51 2298.73 1470.08 Q2300.56 1473.62 2304.17 1473.62 Q2307.8 1473.62 2309.61 1470.08 Q2311.44 1466.51 2311.44 1459.41 Q2311.44 1452.28 2309.61 1448.74 Q2307.8 1445.17 2304.17 1445.17 M2304.17 1441.47 Q2309.98 1441.47 2313.03 1446.07 Q2316.11 1450.66 2316.11 1459.41 Q2316.11 1468.13 2313.03 1472.74 Q2309.98 1477.32 2304.17 1477.32 Q2298.36 1477.32 2295.28 1472.74 Q2292.22 1468.13 2292.22 1459.41 Q2292.22 1450.66 2295.28 1446.07 Q2298.36 1441.47 2304.17 1441.47 Z" fill="#000000" fill-rule="evenodd" fill-opacity="1" /><path clip-path="url(#clip7000)" d="M 0 0 M2331.18 1445.17 Q2327.57 1445.17 2325.74 1448.74 Q2323.94 1452.28 2323.94 1459.41 Q2323.94 1466.51 2325.74 1470.08 Q2327.57 1473.62 2331.18 1473.62 Q2334.82 1473.62 2336.62 1470.08 Q2338.45 1466.51 2338.45 1459.41 Q2338.45 1452.28 2336.62 1448.74 Q2334.82 1445.17 2331.18 1445.17 M2331.18 1441.47 Q2336.99 1441.47 2340.05 1446.07 Q2343.13 1450.66 2343.13 1459.41 Q2343.13 1468.13 2340.05 1472.74 Q2336.99 1477.32 2331.18 1477.32 Q2325.37 1477.32 2322.29 1472.74 Q2319.24 1468.13 2319.24 1459.41 Q2319.24 1450.66 2322.29 1446.07 Q2325.37 1441.47 2331.18 1441.47 Z" fill="#000000" fill-rule="evenodd" fill-opacity="1" /><path clip-path="url(#clip7000)" d="M 0 0 M126.584 1203.73 L139.061 1203.73 L139.061 1207.52 L126.584 1207.52 L126.584 1203.73 Z" fill="#000000" fill-rule="evenodd" fill-opacity="1" /><path clip-path="url(#clip7000)" d="M 0 0 M154.709 1199.47 Q151.561 1199.47 149.709 1201.62 Q147.88 1203.77 147.88 1207.52 Q147.88 1211.25 149.709 1213.43 Q151.561 1215.58 154.709 1215.58 Q157.857 1215.58 159.686 1213.43 Q161.538 1211.25 161.538 1207.52 Q161.538 1203.77 159.686 1201.62 Q157.857 1199.47 154.709 1199.47 M163.991 1184.82 L163.991 1189.07 Q162.232 1188.24 160.427 1187.8 Q158.644 1187.36 156.885 1187.36 Q152.255 1187.36 149.802 1190.49 Q147.371 1193.61 147.024 1199.93 Q148.39 1197.92 150.45 1196.85 Q152.51 1195.76 154.987 1195.76 Q160.195 1195.76 163.204 1198.94 Q166.237 1202.08 166.237 1207.52 Q166.237 1212.85 163.089 1216.07 Q159.941 1219.28 154.709 1219.28 Q148.714 1219.28 145.542 1214.7 Q142.371 1210.09 142.371 1201.37 Q142.371 1193.17 146.26 1188.31 Q150.149 1183.43 156.7 1183.43 Q158.459 1183.43 160.241 1183.77 Q162.047 1184.12 163.991 1184.82 Z" fill="#000000" fill-rule="evenodd" fill-opacity="1" /><path clip-path="url(#clip7000)" d="M 0 0 M181.306 1187.13 Q177.695 1187.13 175.866 1190.7 Q174.061 1194.24 174.061 1201.37 Q174.061 1208.47 175.866 1212.04 Q177.695 1215.58 181.306 1215.58 Q184.94 1215.58 186.746 1212.04 Q188.575 1208.47 188.575 1201.37 Q188.575 1194.24 186.746 1190.7 Q184.94 1187.13 181.306 1187.13 M181.306 1183.43 Q187.116 1183.43 190.172 1188.03 Q193.251 1192.62 193.251 1201.37 Q193.251 1210.09 190.172 1214.7 Q187.116 1219.28 181.306 1219.28 Q175.496 1219.28 172.417 1214.7 Q169.362 1210.09 169.362 1201.37 Q169.362 1192.62 172.417 1188.03 Q175.496 1183.43 181.306 1183.43 Z" fill="#000000" fill-rule="evenodd" fill-opacity="1" /><path clip-path="url(#clip7000)" d="M 0 0 M127.742 843.474 L140.218 843.474 L140.218 847.27 L127.742 847.27 L127.742 843.474 Z" fill="#000000" fill-rule="evenodd" fill-opacity="1" /><path clip-path="url(#clip7000)" d="M 0 0 M145.334 823.798 L163.691 823.798 L163.691 827.733 L149.617 827.733 L149.617 836.205 Q150.635 835.858 151.654 835.696 Q152.672 835.511 153.691 835.511 Q159.478 835.511 162.857 838.682 Q166.237 841.853 166.237 847.27 Q166.237 852.849 162.765 855.95 Q159.292 859.029 152.973 859.029 Q150.797 859.029 148.529 858.659 Q146.283 858.288 143.876 857.548 L143.876 852.849 Q145.959 853.983 148.181 854.538 Q150.404 855.094 152.88 855.094 Q156.885 855.094 159.223 852.987 Q161.561 850.881 161.561 847.27 Q161.561 843.659 159.223 841.552 Q156.885 839.446 152.88 839.446 Q151.005 839.446 149.13 839.862 Q147.279 840.279 145.334 841.159 L145.334 823.798 Z" fill="#000000" fill-rule="evenodd" fill-opacity="1" /><path clip-path="url(#clip7000)" d="M 0 0 M181.306 826.876 Q177.695 826.876 175.866 830.441 Q174.061 833.983 174.061 841.112 Q174.061 848.219 175.866 851.784 Q177.695 855.325 181.306 855.325 Q184.94 855.325 186.746 851.784 Q188.575 848.219 188.575 841.112 Q188.575 833.983 186.746 830.441 Q184.94 826.876 181.306 826.876 M181.306 823.173 Q187.116 823.173 190.172 827.779 Q193.251 832.363 193.251 841.112 Q193.251 849.839 190.172 854.446 Q187.116 859.029 181.306 859.029 Q175.496 859.029 172.417 854.446 Q169.362 849.839 169.362 841.112 Q169.362 832.363 172.417 827.779 Q175.496 823.173 181.306 823.173 Z" fill="#000000" fill-rule="evenodd" fill-opacity="1" /><path clip-path="url(#clip7000)" d="M 0 0 M126.26 483.22 L138.737 483.22 L138.737 487.016 L126.26 487.016 L126.26 483.22 Z" fill="#000000" fill-rule="evenodd" fill-opacity="1" /><path clip-path="url(#clip7000)" d="M 0 0 M156.654 467.618 L144.848 486.067 L156.654 486.067 L156.654 467.618 M155.427 463.544 L161.306 463.544 L161.306 486.067 L166.237 486.067 L166.237 489.956 L161.306 489.956 L161.306 498.104 L156.654 498.104 L156.654 489.956 L141.052 489.956 L141.052 485.442 L155.427 463.544 Z" fill="#000000" fill-rule="evenodd" fill-opacity="1" /><path clip-path="url(#clip7000)" d="M 0 0 M181.306 466.622 Q177.695 466.622 175.866 470.187 Q174.061 473.729 174.061 480.858 Q174.061 487.965 175.866 491.53 Q177.695 495.071 181.306 495.071 Q184.94 495.071 186.746 491.53 Q188.575 487.965 188.575 480.858 Q188.575 473.729 186.746 470.187 Q184.94 466.622 181.306 466.622 M181.306 462.919 Q187.116 462.919 190.172 467.525 Q193.251 472.109 193.251 480.858 Q193.251 489.585 190.172 494.192 Q187.116 498.775 181.306 498.775 Q175.496 498.775 172.417 494.192 Q169.362 489.585 169.362 480.858 Q169.362 472.109 172.417 467.525 Q175.496 462.919 181.306 462.919 Z" fill="#000000" fill-rule="evenodd" fill-opacity="1" /><path clip-path="url(#clip7000)" d="M 0 0 M127.394 122.966 L139.871 122.966 L139.871 126.762 L127.394 126.762 L127.394 122.966 Z" fill="#000000" fill-rule="evenodd" fill-opacity="1" /><path clip-path="url(#clip7000)" d="M 0 0 M159.107 119.216 Q162.464 119.933 164.339 122.202 Q166.237 124.47 166.237 127.804 Q166.237 132.919 162.718 135.72 Q159.2 138.521 152.718 138.521 Q150.542 138.521 148.228 138.081 Q145.936 137.665 143.482 136.808 L143.482 132.294 Q145.427 133.429 147.742 134.007 Q150.056 134.586 152.579 134.586 Q156.978 134.586 159.269 132.85 Q161.584 131.114 161.584 127.804 Q161.584 124.748 159.431 123.035 Q157.302 121.299 153.482 121.299 L149.454 121.299 L149.454 117.456 L153.667 117.456 Q157.116 117.456 158.945 116.091 Q160.774 114.702 160.774 112.109 Q160.774 109.447 158.876 108.035 Q157.001 106.6 153.482 106.6 Q151.561 106.6 149.362 107.017 Q147.163 107.433 144.524 108.313 L144.524 104.146 Q147.186 103.406 149.501 103.035 Q151.839 102.665 153.899 102.665 Q159.223 102.665 162.325 105.095 Q165.427 107.503 165.427 111.623 Q165.427 114.493 163.783 116.484 Q162.14 118.452 159.107 119.216 Z" fill="#000000" fill-rule="evenodd" fill-opacity="1" /><path clip-path="url(#clip7000)" d="M 0 0 M181.306 106.368 Q177.695 106.368 175.866 109.933 Q174.061 113.475 174.061 120.605 Q174.061 127.711 175.866 131.276 Q177.695 134.817 181.306 134.817 Q184.94 134.817 186.746 131.276 Q188.575 127.711 188.575 120.605 Q188.575 113.475 186.746 109.933 Q184.94 106.368 181.306 106.368 M181.306 102.665 Q187.116 102.665 190.172 107.271 Q193.251 111.855 193.251 120.605 Q193.251 129.331 190.172 133.938 Q187.116 138.521 181.306 138.521 Q175.496 138.521 172.417 133.938 Q169.362 129.331 169.362 120.605 Q169.362 111.855 172.417 107.271 Q175.496 102.665 181.306 102.665 Z" fill="#000000" fill-rule="evenodd" fill-opacity="1" /><path clip-path="url(#clip7000)" d="M 0 0 M1156.02 1510.27 L1156.02 1520.4 L1168.08 1520.4 L1168.08 1524.95 L1156.02 1524.95 L1156.02 1544.3 Q1156.02 1548.66 1157.2 1549.9 Q1158.41 1551.14 1162.07 1551.14 L1168.08 1551.14 L1168.08 1556.04 L1162.07 1556.04 Q1155.29 1556.04 1152.71 1553.53 Q1150.13 1550.98 1150.13 1544.3 L1150.13 1524.95 L1145.83 1524.95 L1145.83 1520.4 L1150.13 1520.4 L1150.13 1510.27 L1156.02 1510.27 Z" fill="#000000" fill-rule="evenodd" fill-opacity="1" /><path clip-path="url(#clip7000)" d="M 0 0 M1174.22 1520.4 L1180.08 1520.4 L1180.08 1556.04 L1174.22 1556.04 L1174.22 1520.4 M1174.22 1506.52 L1180.08 1506.52 L1180.08 1513.93 L1174.22 1513.93 L1174.22 1506.52 Z" fill="#000000" fill-rule="evenodd" fill-opacity="1" /><path clip-path="url(#clip7000)" d="M 0 0 M1213.98 1527.24 Q1216.17 1523.29 1219.23 1521.41 Q1222.29 1519.54 1226.42 1519.54 Q1231.99 1519.54 1235.02 1523.45 Q1238.04 1527.33 1238.04 1534.53 L1238.04 1556.04 L1232.15 1556.04 L1232.15 1534.72 Q1232.15 1529.59 1230.34 1527.11 Q1228.52 1524.63 1224.8 1524.63 Q1220.25 1524.63 1217.61 1527.65 Q1214.96 1530.68 1214.96 1535.9 L1214.96 1556.04 L1209.08 1556.04 L1209.08 1534.72 Q1209.08 1529.56 1207.26 1527.11 Q1205.45 1524.63 1201.66 1524.63 Q1197.17 1524.63 1194.53 1527.68 Q1191.89 1530.71 1191.89 1535.9 L1191.89 1556.04 L1186 1556.04 L1186 1520.4 L1191.89 1520.4 L1191.89 1525.93 Q1193.89 1522.66 1196.69 1521.1 Q1199.5 1519.54 1203.35 1519.54 Q1207.23 1519.54 1209.94 1521.51 Q1212.67 1523.48 1213.98 1527.24 Z" fill="#000000" fill-rule="evenodd" fill-opacity="1" /><path clip-path="url(#clip7000)" d="M 0 0 M1274.67 1536.76 L1274.67 1539.62 L1247.75 1539.62 Q1248.13 1545.67 1251.38 1548.85 Q1254.65 1552 1260.48 1552 Q1263.85 1552 1267 1551.17 Q1270.19 1550.35 1273.31 1548.69 L1273.31 1554.23 Q1270.16 1555.57 1266.85 1556.27 Q1263.53 1556.97 1260.13 1556.97 Q1251.6 1556.97 1246.6 1552 Q1241.64 1547.04 1241.64 1538.57 Q1241.64 1529.82 1246.35 1524.69 Q1251.09 1519.54 1259.11 1519.54 Q1266.3 1519.54 1270.47 1524.18 Q1274.67 1528.8 1274.67 1536.76 M1268.82 1535.04 Q1268.75 1530.23 1266.11 1527.37 Q1263.5 1524.5 1259.17 1524.5 Q1254.27 1524.5 1251.31 1527.27 Q1248.38 1530.04 1247.94 1535.07 L1268.82 1535.04 Z" fill="#000000" fill-rule="evenodd" fill-opacity="1" /><path clip-path="url(#clip7000)" d="M 0 0 M1315.61 1506.58 Q1311.34 1513.9 1309.27 1521.06 Q1307.2 1528.23 1307.2 1535.58 Q1307.2 1542.93 1309.27 1550.16 Q1311.37 1557.35 1315.61 1564.64 L1310.51 1564.64 Q1305.74 1557.16 1303.35 1549.93 Q1301 1542.71 1301 1535.58 Q1301 1528.48 1303.35 1521.29 Q1305.71 1514.09 1310.51 1506.58 L1315.61 1506.58 Z" fill="#000000" fill-rule="evenodd" fill-opacity="1" /><path clip-path="url(#clip7000)" d="M 0 0 M1349.5 1527.24 Q1351.7 1523.29 1354.76 1521.41 Q1357.81 1519.54 1361.95 1519.54 Q1367.52 1519.54 1370.54 1523.45 Q1373.57 1527.33 1373.57 1534.53 L1373.57 1556.04 L1367.68 1556.04 L1367.68 1534.72 Q1367.68 1529.59 1365.86 1527.11 Q1364.05 1524.63 1360.33 1524.63 Q1355.77 1524.63 1353.13 1527.65 Q1350.49 1530.68 1350.49 1535.9 L1350.49 1556.04 L1344.6 1556.04 L1344.6 1534.72 Q1344.6 1529.56 1342.79 1527.11 Q1340.97 1524.63 1337.19 1524.63 Q1332.7 1524.63 1330.06 1527.68 Q1327.41 1530.71 1327.41 1535.9 L1327.41 1556.04 L1321.53 1556.04 L1321.53 1520.4 L1327.41 1520.4 L1327.41 1525.93 Q1329.42 1522.66 1332.22 1521.1 Q1335.02 1519.54 1338.87 1519.54 Q1342.76 1519.54 1345.46 1521.51 Q1348.2 1523.48 1349.5 1527.24 Z" fill="#000000" fill-rule="evenodd" fill-opacity="1" /><path clip-path="url(#clip7000)" d="M 0 0 M1402.43 1521.45 L1402.43 1526.98 Q1399.95 1525.71 1397.28 1525.07 Q1394.6 1524.44 1391.74 1524.44 Q1387.38 1524.44 1385.18 1525.77 Q1383.02 1527.11 1383.02 1529.79 Q1383.02 1531.82 1384.58 1533 Q1386.14 1534.15 1390.85 1535.2 L1392.85 1535.64 Q1399.09 1536.98 1401.7 1539.43 Q1404.34 1541.85 1404.34 1546.21 Q1404.34 1551.17 1400.4 1554.07 Q1396.48 1556.97 1389.61 1556.97 Q1386.74 1556.97 1383.62 1556.39 Q1380.54 1555.85 1377.1 1554.74 L1377.1 1548.69 Q1380.35 1550.38 1383.5 1551.24 Q1386.65 1552.07 1389.74 1552.07 Q1393.87 1552.07 1396.1 1550.66 Q1398.33 1549.23 1398.33 1546.65 Q1398.33 1544.27 1396.71 1542.99 Q1395.11 1541.72 1389.67 1540.54 L1387.63 1540.07 Q1382.19 1538.92 1379.77 1536.56 Q1377.35 1534.18 1377.35 1530.04 Q1377.35 1525.01 1380.92 1522.27 Q1384.48 1519.54 1391.04 1519.54 Q1394.29 1519.54 1397.15 1520.01 Q1400.02 1520.49 1402.43 1521.45 Z" fill="#000000" fill-rule="evenodd" fill-opacity="1" /><path clip-path="url(#clip7000)" d="M 0 0 M1409.56 1506.58 L1414.66 1506.58 Q1419.43 1514.09 1421.79 1521.29 Q1424.17 1528.48 1424.17 1535.58 Q1424.17 1542.71 1421.79 1549.93 Q1419.43 1557.16 1414.66 1564.64 L1409.56 1564.64 Q1413.8 1557.35 1415.87 1550.16 Q1417.97 1542.93 1417.97 1535.58 Q1417.97 1528.23 1415.87 1521.06 Q1413.8 1513.9 1409.56 1506.58 Z" fill="#000000" fill-rule="evenodd" fill-opacity="1" /><path clip-path="url(#clip7000)" d="M 0 0 M52.3562 841.774 L52.3562 835.567 L82.275 824.427 L52.3562 813.287 L52.3562 807.081 L88.0042 820.449 L88.0042 828.406 L52.3562 841.774 Z" fill="#000000" fill-rule="evenodd" fill-opacity="1" /><path clip-path="url(#clip7000)" d="M 0 0 M56.4621 787.124 Q56.4621 791.835 60.1542 794.572 Q63.8145 797.309 70.212 797.309 Q76.6095 797.309 80.3017 794.604 Q83.9619 791.867 83.9619 787.124 Q83.9619 782.446 80.2698 779.708 Q76.5777 776.971 70.212 776.971 Q63.8781 776.971 60.186 779.708 Q56.4621 782.446 56.4621 787.124 M51.4968 787.124 Q51.4968 779.485 56.4621 775.125 Q61.4273 770.764 70.212 770.764 Q78.9649 770.764 83.9619 775.125 Q88.9272 779.485 88.9272 787.124 Q88.9272 794.795 83.9619 799.155 Q78.9649 803.484 70.212 803.484 Q61.4273 803.484 56.4621 799.155 Q51.4968 794.795 51.4968 787.124 Z" fill="#000000" fill-rule="evenodd" fill-opacity="1" /><path clip-path="url(#clip7000)" d="M 0 0 M38.479 764.622 L38.479 758.765 L88.0042 758.765 L88.0042 764.622 L38.479 764.622 Z" fill="#000000" fill-rule="evenodd" fill-opacity="1" /><path clip-path="url(#clip7000)" d="M 0 0 M42.2347 746.829 L52.3562 746.829 L52.3562 734.766 L56.9077 734.766 L56.9077 746.829 L76.2594 746.829 Q80.6199 746.829 81.8613 745.652 Q83.1026 744.442 83.1026 740.782 L83.1026 734.766 L88.0042 734.766 L88.0042 740.782 Q88.0042 747.561 85.4897 750.14 Q82.9434 752.718 76.2594 752.718 L56.9077 752.718 L56.9077 757.015 L52.3562 757.015 L52.3562 752.718 L42.2347 752.718 L42.2347 746.829 Z" fill="#000000" fill-rule="evenodd" fill-opacity="1" /><path clip-path="url(#clip7000)" d="M 0 0 M70.0847 712.423 Q70.0847 719.521 71.7079 722.258 Q73.3312 724.995 77.2461 724.995 Q80.3653 724.995 82.2114 722.958 Q84.0256 720.889 84.0256 717.356 Q84.0256 712.486 80.5881 709.558 Q77.1188 706.598 71.3897 706.598 L70.0847 706.598 L70.0847 712.423 M67.6657 700.742 L88.0042 700.742 L88.0042 706.598 L82.5933 706.598 Q85.8398 708.603 87.3994 711.595 Q88.9272 714.587 88.9272 718.916 Q88.9272 724.39 85.8716 727.637 Q82.7843 730.851 77.6281 730.851 Q71.6125 730.851 68.5569 726.841 Q65.5014 722.799 65.5014 714.81 L65.5014 706.598 L64.9285 706.598 Q60.8862 706.598 58.6901 709.272 Q56.4621 711.913 56.4621 716.72 Q56.4621 719.775 57.1941 722.672 Q57.9262 725.568 59.3903 728.242 L53.9795 728.242 Q52.7381 725.027 52.1334 722.003 Q51.4968 718.979 51.4968 716.115 Q51.4968 708.381 55.5072 704.561 Q59.5176 700.742 67.6657 700.742 Z" fill="#000000" fill-rule="evenodd" fill-opacity="1" /><path clip-path="url(#clip7000)" d="M 0 0 M69.7664 671.141 Q63.4007 671.141 59.8996 673.783 Q56.3984 676.393 56.3984 681.135 Q56.3984 685.846 59.8996 688.488 Q63.4007 691.098 69.7664 691.098 Q76.1003 691.098 79.6014 688.488 Q83.1026 685.846 83.1026 681.135 Q83.1026 676.393 79.6014 673.783 Q76.1003 671.141 69.7664 671.141 M83.58 665.285 Q92.683 665.285 97.1071 669.327 Q101.563 673.369 101.563 681.708 Q101.563 684.796 101.086 687.533 Q100.64 690.27 99.6852 692.848 L93.9879 692.848 Q95.3884 690.27 96.0568 687.756 Q96.7252 685.241 96.7252 682.631 Q96.7252 676.87 93.7015 674.006 Q90.7096 671.141 84.6303 671.141 L81.7339 671.141 Q84.885 672.955 86.4446 675.788 Q88.0042 678.621 88.0042 682.568 Q88.0042 689.124 83.0071 693.135 Q78.01 697.145 69.7664 697.145 Q61.491 697.145 56.4939 693.135 Q51.4968 689.124 51.4968 682.568 Q51.4968 678.621 53.0564 675.788 Q54.616 672.955 57.7671 671.141 L52.3562 671.141 L52.3562 665.285 L83.58 665.285 Z" fill="#000000" fill-rule="evenodd" fill-opacity="1" /><path clip-path="url(#clip7000)" d="M 0 0 M68.7161 628.65 L71.5806 628.65 L71.5806 655.577 Q77.6281 655.195 80.8109 651.949 Q83.9619 648.67 83.9619 642.846 Q83.9619 639.472 83.1344 636.321 Q82.3069 633.138 80.6518 630.019 L86.1899 630.019 Q87.5267 633.17 88.227 636.48 Q88.9272 639.79 88.9272 643.196 Q88.9272 651.726 83.9619 656.723 Q78.9967 661.688 70.5303 661.688 Q61.7774 661.688 56.6531 656.977 Q51.4968 652.235 51.4968 644.214 Q51.4968 637.021 56.1438 632.851 Q60.7589 628.65 68.7161 628.65 M66.9973 634.506 Q62.1912 634.57 59.3266 637.212 Q56.4621 639.822 56.4621 644.151 Q56.4621 649.052 59.2312 652.012 Q62.0002 654.94 67.0292 655.386 L66.9973 634.506 Z" fill="#000000" fill-rule="evenodd" fill-opacity="1" /><polyline clip-path="url(#clip7002)" style="stroke:#009af9; stroke-width:4; stroke-opacity:1; fill:none" points="
  277.689,1381.46 279.706,1381.46 281.723,1384.24 283.739,1383.39 285.756,1383.93 287.773,1383.68 289.789,1383.8 291.806,1383.75 293.823,1383.78 295.839,1383.75 
  297.856,1383.77 299.872,1383.76 301.889,1383.76 303.906,1383.76 305.922,1383.76 307.939,1383.76 309.956,1383.77 311.972,1383.76 313.989,1383.76 316.006,1383.76 
  318.022,1383.76 320.039,1383.77 322.056,1383.76 324.072,1383.77 326.089,1383.76 328.105,1383.77 330.122,1383.77 332.139,1383.77 334.155,1383.77 336.172,1383.76 
  338.189,1383.76 340.205,1383.77 342.222,1383.77 344.239,1383.77 346.255,1383.77 348.272,1383.76 350.289,1383.77 352.305,1383.77 354.322,1383.76 356.338,1383.77 
  358.355,1383.76 360.372,1383.77 362.388,1383.76 364.405,1383.76 366.422,1383.77 368.438,1383.77 370.455,1383.78 372.472,1383.76 374.488,1383.76 376.505,1383.77 
  378.522,1383.76 380.538,1383.76 382.555,1383.76 384.572,1383.77 386.588,1383.77 388.605,1383.77 390.621,1383.76 392.638,1383.76 394.655,1383.76 396.671,1383.77 
  398.688,1383.76 400.705,1383.77 402.721,1383.76 404.738,1383.76 406.755,1383.77 408.771,1383.77 410.788,1383.76 412.805,1383.77 414.821,1383.77 416.838,1383.77 
  418.854,1383.77 420.871,1383.77 422.888,1383.76 424.904,1383.77 426.921,1383.77 428.938,1383.77 430.954,1383.76 432.971,1383.77 434.988,1383.77 437.004,1383.77 
  439.021,1383.77 441.038,1383.77 443.054,1383.78 445.071,1383.77 447.087,1383.76 449.104,1383.76 451.121,1383.77 453.137,1383.77 455.154,1383.77 457.171,1383.77 
  459.187,1383.77 461.204,1383.76 463.221,1383.76 465.237,1383.77 467.254,1383.76 469.271,1383.77 471.287,1383.77 473.304,1383.77 475.321,1383.76 477.337,1383.76 
  479.354,1383.77 481.37,1383.76 483.387,1383.77 485.404,1383.77 487.42,1383.76 489.437,1383.77 491.454,1383.76 493.47,1383.76 495.487,1383.76 497.504,1383.76 
  499.52,1383.77 501.537,1383.76 503.554,1383.77 505.57,1383.77 507.587,1383.76 509.603,1383.77 511.62,1383.77 513.637,1383.77 515.653,1383.77 517.67,1383.77 
  519.687,1383.77 521.703,1383.76 523.72,1383.76 525.737,1383.76 527.753,1383.77 529.77,1383.76 531.787,1383.76 533.803,1383.77 535.82,1383.78 537.836,1383.76 
  539.853,1383.76 541.87,1383.76 543.886,1383.76 545.903,1383.76 547.92,1383.77 549.936,1383.77 551.953,1383.77 553.97,1383.77 555.986,1383.77 558.003,1383.76 
  560.02,1383.77 562.036,1383.77 564.053,1383.76 566.07,1383.76 568.086,1383.76 570.103,1383.77 572.119,1383.77 574.136,1383.77 576.153,1383.76 578.169,1383.76 
  580.186,1383.76 582.203,1383.76 584.219,1383.76 586.236,1383.76 588.253,1383.77 590.269,1383.77 592.286,1383.77 594.303,1383.77 596.319,1383.77 598.336,1383.76 
  600.352,1383.76 602.369,1383.77 604.386,1383.77 606.402,1383.77 608.419,1383.76 610.436,1383.76 612.452,1383.77 614.469,1383.77 616.486,1383.77 618.502,1383.76 
  620.519,1383.77 622.536,1383.76 624.552,1383.77 626.569,1383.77 628.585,1383.77 630.602,1383.77 632.619,1383.77 634.635,1383.76 636.652,1383.77 638.669,1383.77 
  640.685,1383.76 642.702,1383.76 644.719,1383.77 646.735,1383.76 648.752,1383.76 650.769,1383.76 652.785,1383.76 654.802,1383.76 656.819,1383.77 658.835,1383.77 
  660.852,1383.76 662.868,1383.77 664.885,1383.77 666.902,1383.77 668.918,1383.77 670.935,1383.78 672.952,1383.77 674.968,1383.77 676.985,1383.76 679.002,1383.77 
  681.018,1023.51 683.035,880.339 685.052,783.438 687.068,704.919 689.085,633.661 691.101,563.072 693.118,487.583 695.135,400.712 697.151,292.938 699.168,147.586 
  701.185,1201.33 703.201,966.17 705.218,845.678 707.235,755.844 709.251,681.024 711.268,610.436 713.285,538.929 715.301,460.446 717.318,367.972 719.334,250.138 
  721.351,86.2755 723.368,1201.33 725.384,966.171 727.401,845.68 729.418,755.834 731.434,681.004 733.451,610.428 735.468,538.918 737.484,460.427 739.501,367.958 
  741.518,250.117 743.534,86.2456 745.551,1201.33 747.568,966.169 749.584,845.673 751.601,755.839 753.617,681.009 755.634,610.424 757.651,538.917 759.667,460.436 
  761.684,367.971 763.701,250.135 765.717,86.276 767.734,1201.33 769.751,966.18 771.767,845.693 773.784,755.844 775.801,681.01 777.817,610.436 779.834,538.925 
  781.85,460.433 783.867,367.965 785.884,250.119 787.9,86.2578 789.917,1201.33 791.934,966.184 793.95,845.692 795.967,755.842 797.984,681.005 800,610.422 
  802.017,538.906 804.034,460.417 806.05,367.943 808.067,250.097 810.083,86.2235 812.1,1201.33 814.117,966.169 816.133,845.669 818.15,755.834 820.167,681.01 
  822.183,610.435 824.2,538.924 826.217,460.437 828.233,367.964 830.25,250.134 832.267,86.2668 834.283,1201.33 836.3,966.184 838.316,845.693 840.333,755.846 
  842.35,681.013 844.366,610.439 846.383,538.928 848.4,460.441 850.416,367.973 852.433,250.135 854.45,86.2707 856.466,1201.33 858.483,966.171 860.5,845.687 
  862.516,755.848 864.533,681.012 866.55,610.437 868.566,538.926 870.583,460.429 872.599,367.96 874.616,250.117 876.633,86.2451 878.649,1201.33 880.666,966.185 
  882.683,845.696 884.699,1116.11 886.716,1291.51 888.733,1360.66 890.749,1379.01 892.766,1382.77 894.783,1383.58 896.799,1383.72 898.816,1383.77 900.832,1383.76 
  902.849,1383.77 904.866,1383.77 906.882,1383.77 908.899,1383.76 910.916,1383.77 912.932,1383.77 914.949,1383.77 916.966,1383.77 918.982,1383.76 920.999,1383.77 
  923.016,1383.76 925.032,1383.77 927.049,1383.77 929.065,1383.77 931.082,1383.76 933.099,1383.77 935.115,1383.76 937.132,1383.77 939.149,1383.76 941.165,1383.77 
  943.182,1383.77 945.199,1383.77 947.215,1383.76 949.232,1383.76 951.249,1383.77 953.265,1383.76 955.282,1383.76 957.299,1383.77 959.315,1383.77 961.332,1383.77 
  963.348,1383.77 965.365,1383.77 967.382,1383.77 969.398,1383.77 971.415,1383.77 973.432,1383.77 975.448,1383.77 977.465,1383.77 979.482,1383.76 981.498,1383.76 
  983.515,1383.76 985.532,1383.76 987.548,1383.77 989.565,1383.76 991.581,1383.77 993.598,1383.77 995.615,1383.76 997.631,1383.77 999.648,1383.76 1001.66,1383.76 
  1003.68,1383.77 1005.7,1383.76 1007.71,1383.77 1009.73,1383.77 1011.75,1383.77 1013.76,1383.76 1015.78,1383.76 1017.8,1383.77 1019.81,1383.76 1021.83,1383.77 
  1023.85,1383.77 1025.86,1383.77 1027.88,1383.76 1029.9,1383.77 1031.91,1383.77 1033.93,1383.77 1035.95,1383.76 1037.96,1383.76 1039.98,1383.77 1042,1383.76 
  1044.01,1383.76 1046.03,1383.76 1048.05,1383.77 1050.06,1383.77 1052.08,1383.77 1054.1,1383.76 1056.11,1383.76 1058.13,1383.76 1060.15,1383.77 1062.16,1383.77 
  1064.18,1383.76 1066.2,1383.76 1068.21,1383.76 1070.23,1383.77 1072.25,1383.77 1074.26,1383.77 1076.28,1383.77 1078.3,1383.76 1080.31,1383.76 1082.33,1383.77 
  1084.35,1023.52 1086.36,880.333 1088.38,783.42 1090.4,704.904 1092.41,633.642 1094.43,563.05 1096.45,487.552 1098.46,400.683 1100.48,292.912 1102.5,147.552 
  1104.51,1201.33 1106.53,966.177 1108.55,845.677 1110.56,755.839 1112.58,681.017 1114.6,610.428 1116.61,538.912 1118.63,460.415 1120.65,367.928 1122.66,250.075 
  1124.68,86.1857 1126.7,1201.33 1128.71,966.181 1130.73,845.683 1132.75,755.844 1134.76,681.023 1136.78,610.448 1138.8,538.942 1140.81,460.448 1142.83,367.972 
  1144.85,250.139 1146.86,86.2854 1148.88,1201.33 1150.9,966.178 1152.91,845.69 1154.93,755.851 1156.95,681.02 1158.96,610.432 1160.98,538.93 1163,460.442 
  1165.01,367.972 1167.03,250.142 1169.05,86.2814 1171.06,1201.33 1173.08,966.17 1175.1,845.677 1177.11,755.835 1179.13,681.013 1181.15,610.428 1183.16,538.913 
  1185.18,460.427 1187.2,367.952 1189.21,250.106 1191.23,86.2366 1193.25,1201.33 1195.26,966.174 1197.28,845.684 1199.3,755.847 1201.31,681.012 1203.33,610.429 
  1205.35,538.925 1207.36,460.436 1209.38,367.96 1211.4,250.12 1213.41,86.2495 1215.43,1201.33 1217.45,966.169 1219.46,845.683 1221.48,755.846 1223.5,681.01 
  1225.51,610.429 1227.53,538.919 1229.55,460.43 1231.56,367.947 1233.58,250.106 1235.6,86.2332 1237.61,1201.33 1239.63,966.18 1241.65,845.685 1243.66,755.839 
  1245.68,681.013 1247.7,610.424 1249.71,538.912 1251.73,460.415 1253.75,367.945 1255.76,250.092 1257.78,86.2071 1259.8,1201.33 1261.81,966.179 1263.83,845.675 
  1265.85,755.834 1267.86,681.005 1269.88,610.415 1271.9,538.904 1273.91,460.412 1275.93,367.926 1277.94,250.078 1279.96,86.2005 1281.98,1201.33 1283.99,966.171 
  1286.01,845.685 1288.03,1116.09 1290.04,1291.52 1292.06,1360.66 1294.08,1378.99 1296.09,1382.77 1298.11,1383.58 1300.13,1383.71 1302.14,1383.76 1304.16,1383.77 
  1306.18,1383.77 1308.19,1383.77 1310.21,1383.78 1312.23,1383.77 1314.24,1383.76 1316.26,1383.77 1318.28,1383.76 1320.29,1383.76 1322.31,1383.77 1324.33,1383.78 
  1326.34,1383.77 1328.36,1383.77 1330.38,1383.78 1332.39,1383.77 1334.41,1383.77 1336.43,1383.77 1338.44,1383.77 1340.46,1383.77 1342.48,1383.77 1344.49,1383.76 
  1346.51,1383.76 1348.53,1383.77 1350.54,1383.77 1352.56,1383.77 1354.58,1383.76 1356.59,1383.76 1358.61,1383.76 1360.63,1383.76 1362.64,1383.76 1364.66,1383.77 
  1366.68,1383.76 1368.69,1383.77 1370.71,1383.76 1372.73,1383.77 1374.74,1383.76 1376.76,1383.77 1378.78,1383.77 1380.79,1383.77 1382.81,1383.76 1384.83,1383.76 
  1386.84,1383.77 1388.86,1383.77 1390.88,1383.77 1392.89,1383.77 1394.91,1383.76 1396.93,1383.76 1398.94,1383.76 1400.96,1383.77 1402.98,1383.76 1404.99,1383.76 
  1407.01,1383.77 1409.03,1383.77 1411.04,1383.76 1413.06,1383.77 1415.08,1383.77 1417.09,1383.76 1419.11,1383.77 1421.13,1383.76 1423.14,1383.77 1425.16,1383.78 
  1427.18,1383.76 1429.19,1383.76 1431.21,1383.77 1433.23,1383.76 1435.24,1383.77 1437.26,1383.77 1439.28,1383.77 1441.29,1383.76 1443.31,1383.77 1445.33,1383.77 
  1447.34,1383.76 1449.36,1383.77 1451.38,1383.77 1453.39,1383.77 1455.41,1383.77 1457.43,1383.77 1459.44,1383.78 1461.46,1383.77 1463.48,1383.77 1465.49,1383.77 
  1467.51,1383.76 1469.53,1383.76 1471.54,1383.76 1473.56,1383.77 1475.58,1383.77 1477.59,1383.77 1479.61,1383.77 1481.63,1383.77 1483.64,1383.78 1485.66,1383.76 
  1487.68,1383.76 1489.69,1383.76 1491.71,1383.76 1493.73,1383.76 1495.74,1383.77 1497.76,1383.78 1499.78,1383.76 1501.79,1383.76 1503.81,1383.77 1505.83,1383.77 
  1507.84,1383.77 1509.86,1383.77 1511.88,1383.78 1513.89,1383.78 1515.91,1383.76 1517.93,1383.77 1519.94,1383.77 1521.96,1383.77 1523.98,1383.77 1525.99,1383.77 
  1528.01,1383.77 1530.03,1383.77 1532.04,1383.77 1534.06,1383.76 1536.08,1383.76 1538.09,1383.76 1540.11,1383.76 1542.13,1383.76 1544.14,1383.76 1546.16,1383.76 
  1548.18,1383.77 1550.19,1383.76 1552.21,1383.77 1554.23,1383.78 1556.24,1383.77 1558.26,1383.77 1560.28,1383.77 1562.29,1383.76 1564.31,1383.76 1566.33,1383.76 
  1568.34,1383.77 1570.36,1383.77 1572.38,1383.77 1574.39,1383.76 1576.41,1383.77 1578.42,1383.77 1580.44,1383.77 1582.46,1383.77 1584.47,1383.77 1586.49,1383.77 
  1588.51,1383.77 1590.52,1383.76 1592.54,1383.77 1594.56,1383.77 1596.57,1383.76 1598.59,1383.77 1600.61,1383.78 1602.62,1383.77 1604.64,1383.77 1606.66,1383.78 
  1608.67,1383.77 1610.69,1383.77 1612.71,1383.76 1614.72,1383.76 1616.74,1383.76 1618.76,1383.77 1620.77,1383.77 1622.79,1383.76 1624.81,1383.77 1626.82,1383.77 
  1628.84,1383.77 1630.86,1383.77 1632.87,1383.76 1634.89,1383.76 1636.91,1383.77 1638.92,1383.77 1640.94,1383.76 1642.96,1383.76 1644.97,1383.77 1646.99,1383.77 
  1649.01,1383.76 1651.02,1383.77 1653.04,1383.77 1655.06,1383.76 1657.07,1383.77 1659.09,1383.76 1661.11,1383.76 1663.12,1383.77 1665.14,1383.77 1667.16,1383.77 
  1669.17,1383.77 1671.19,1383.78 1673.21,1383.77 1675.22,1383.77 1677.24,1383.78 1679.26,1383.77 1681.27,1383.78 1683.29,1383.77 1685.31,1383.76 1687.32,1383.77 
  1689.34,1383.77 1691.36,1383.77 1693.37,1383.77 1695.39,1383.77 1697.41,1383.76 1699.42,1383.77 1701.44,1383.77 1703.46,1383.76 1705.47,1383.77 1707.49,1383.78 
  1709.51,1383.77 1711.52,1383.77 1713.54,1383.77 1715.56,1383.77 1717.57,1383.77 1719.59,1383.77 1721.61,1383.77 1723.62,1383.78 1725.64,1383.76 1727.66,1383.76 
  1729.67,1383.77 1731.69,1383.76 1733.71,1383.76 1735.72,1383.77 1737.74,1383.77 1739.76,1383.77 1741.77,1383.76 1743.79,1383.77 1745.81,1383.76 1747.82,1383.76 
  1749.84,1383.76 1751.86,1383.77 1753.87,1383.77 1755.89,1383.76 1757.91,1383.76 1759.92,1383.77 1761.94,1383.76 1763.96,1383.77 1765.97,1383.77 1767.99,1383.76 
  1770.01,1383.77 1772.02,1383.76 1774.04,1383.77 1776.06,1383.77 1778.07,1383.77 1780.09,1383.78 1782.11,1383.77 1784.12,1383.77 1786.14,1383.77 1788.16,1383.76 
  1790.17,1383.77 1792.19,1383.77 1794.21,1383.76 1796.22,1383.76 1798.24,1383.77 1800.26,1383.76 1802.27,1383.76 1804.29,1383.77 1806.31,1383.77 1808.32,1383.77 
  1810.34,1383.77 1812.36,1383.77 1814.37,1383.76 1816.39,1383.77 1818.41,1383.77 1820.42,1383.76 1822.44,1383.77 1824.46,1383.76 1826.47,1383.76 1828.49,1383.77 
  1830.51,1383.78 1832.52,1383.76 1834.54,1383.76 1836.56,1383.76 1838.57,1383.77 1840.59,1383.77 1842.61,1383.76 1844.62,1383.77 1846.64,1383.76 1848.66,1383.76 
  1850.67,1383.76 1852.69,1383.77 1854.71,1383.76 1856.72,1383.77 1858.74,1383.76 1860.76,1383.76 1862.77,1383.77 1864.79,1383.76 1866.81,1383.76 1868.82,1383.76 
  1870.84,1383.77 1872.86,1383.76 1874.87,1383.77 1876.89,1383.77 1878.9,1383.77 1880.92,1383.76 1882.94,1383.77 1884.95,1383.76 1886.97,1383.76 1888.99,1383.77 
  1891,1383.77 1893.02,1383.78 1895.04,1383.76 1897.05,1383.77 1899.07,1383.77 1901.09,1383.77 1903.1,1383.77 1905.12,1383.76 1907.14,1383.77 1909.15,1383.76 
  1911.17,1383.77 1913.19,1383.76 1915.2,1383.77 1917.22,1383.76 1919.24,1383.77 1921.25,1383.77 1923.27,1383.77 1925.29,1383.78 1927.3,1383.76 1929.32,1383.77 
  1931.34,1383.77 1933.35,1383.76 1935.37,1383.77 1937.39,1383.77 1939.4,1383.76 1941.42,1383.76 1943.44,1383.76 1945.45,1383.76 1947.47,1383.77 1949.49,1383.77 
  1951.5,1383.76 1953.52,1383.77 1955.54,1383.76 1957.55,1383.76 1959.57,1383.77 1961.59,1383.76 1963.6,1383.77 1965.62,1383.77 1967.64,1383.77 1969.65,1383.76 
  1971.67,1383.76 1973.69,1383.77 1975.7,1383.76 1977.72,1383.77 1979.74,1383.78 1981.75,1383.78 1983.77,1383.77 1985.79,1383.76 1987.8,1383.76 1989.82,1383.77 
  1991.84,1383.77 1993.85,1383.77 1995.87,1383.77 1997.89,1383.77 1999.9,1383.76 2001.92,1383.76 2003.94,1383.77 2005.95,1383.77 2007.97,1383.77 2009.99,1383.76 
  2012,1383.76 2014.02,1383.77 2016.04,1383.76 2018.05,1383.76 2020.07,1383.76 2022.09,1383.76 2024.1,1383.77 2026.12,1383.77 2028.14,1383.77 2030.15,1383.77 
  2032.17,1383.77 2034.19,1383.76 2036.2,1383.77 2038.22,1383.76 2040.24,1383.76 2042.25,1383.76 2044.27,1383.76 2046.29,1383.77 2048.3,1383.76 2050.32,1383.76 
  2052.34,1383.77 2054.35,1383.76 2056.37,1383.77 2058.39,1383.76 2060.4,1383.76 2062.42,1383.76 2064.44,1383.77 2066.45,1383.77 2068.47,1383.77 2070.49,1383.77 
  2072.5,1383.77 2074.52,1383.76 2076.54,1383.77 2078.55,1383.78 2080.57,1383.76 2082.59,1383.77 2084.6,1383.77 2086.62,1383.77 2088.64,1383.77 2090.65,1383.76 
  2092.67,1383.76 2094.69,1383.77 2096.7,1383.77 2098.72,1383.76 2100.74,1383.76 2102.75,1383.76 2104.77,1383.77 2106.79,1383.77 2108.8,1383.77 2110.82,1383.77 
  2112.84,1383.77 2114.85,1383.76 2116.87,1383.77 2118.89,1383.76 2120.9,1383.77 2122.92,1383.77 2124.94,1383.77 2126.95,1383.76 2128.97,1383.77 2130.99,1383.76 
  2133,1383.77 2135.02,1383.77 2137.04,1383.77 2139.05,1383.77 2141.07,1383.77 2143.09,1383.76 2145.1,1383.76 2147.12,1383.76 2149.14,1383.76 2151.15,1383.77 
  2153.17,1383.77 2155.19,1383.76 2157.2,1383.76 2159.22,1383.76 2161.24,1383.76 2163.25,1383.76 2165.27,1383.76 2167.29,1383.77 2169.3,1383.76 2171.32,1383.77 
  2173.34,1383.77 2175.35,1383.77 2177.37,1383.78 2179.38,1383.77 2181.4,1383.76 2183.42,1383.76 2185.43,1383.77 2187.45,1383.76 2189.47,1383.76 2191.48,1383.76 
  2193.5,1383.77 2195.52,1383.76 2197.53,1383.76 2199.55,1383.76 2201.57,1383.77 2203.58,1383.76 2205.6,1383.76 2207.62,1383.76 2209.63,1383.76 2211.65,1383.77 
  2213.67,1383.78 2215.68,1383.76 2217.7,1383.76 2219.72,1383.76 2221.73,1383.76 2223.75,1383.77 2225.77,1383.77 2227.78,1383.77 2229.8,1383.77 2231.82,1383.77 
  2233.83,1383.76 2235.85,1383.76 2237.87,1383.77 2239.88,1383.77 2241.9,1383.77 2243.92,1383.77 2245.93,1383.77 2247.95,1383.76 2249.97,1383.77 2251.98,1383.77 
  2254,1383.77 2256.02,1383.76 2258.03,1383.77 2260.05,1383.77 2262.07,1383.76 2264.08,1383.77 2266.1,1383.77 2268.12,1383.77 2270.13,1383.77 2272.15,1383.77 
  2274.17,1383.77 2276.18,1383.77 2278.2,1383.77 2280.22,1383.77 2282.23,1383.76 2284.25,1383.76 2286.27,1383.76 2288.28,1383.77 2290.3,1383.76 2292.32,1383.76 
  
  "/>
</svg>
