<?xml version="1.0" encoding="utf-8"?>
<svg xmlns="http://www.w3.org/2000/svg" xmlns:xlink="http://www.w3.org/1999/xlink" width="600" height="400" viewBox="0 0 2400 1600">
<defs>
  <clipPath id="clip5600">
    <rect x="0" y="0" width="2400" height="1600"/>
  </clipPath>
</defs>
<path clip-path="url(#clip5600)" d="
M0 1600 L2400 1600 L2400 0 L0 0  Z
  " fill="#ffffff" fill-rule="evenodd" fill-opacity="1"/>
<defs>
  <clipPath id="clip5601">
    <rect x="480" y="0" width="1681" height="1600"/>
  </clipPath>
</defs>
<path clip-path="url(#clip5600)" d="
M211.602 1423.18 L2352.76 1423.18 L2352.76 47.2441 L211.602 47.2441  Z
  " fill="#ffffff" fill-rule="evenodd" fill-opacity="1"/>
<defs>
  <clipPath id="clip5602">
    <rect x="211" y="47" width="2142" height="1377"/>
  </clipPath>
</defs>
<polyline clip-path="url(#clip5600)" style="stroke:#000000; stroke-width:4; stroke-opacity:1; fill:none" points="
  211.602,1423.18 2352.76,1423.18 
  "/>
<polyline clip-path="url(#clip5600)" style="stroke:#000000; stroke-width:4; stroke-opacity:1; fill:none" points="
  211.602,1423.18 211.602,47.2441 
  "/>
<polyline clip-path="url(#clip5600)" style="stroke:#000000; stroke-width:4; stroke-opacity:1; fill:none" points="
  387.657,1423.18 387.657,1406.67 
  "/>
<polyline clip-path="url(#clip5600)" style="stroke:#000000; stroke-width:4; stroke-opacity:1; fill:none" points="
  680.075,1423.18 680.075,1406.67 
  "/>
<polyline clip-path="url(#clip5600)" style="stroke:#000000; stroke-width:4; stroke-opacity:1; fill:none" points="
  972.494,1423.18 972.494,1406.67 
  "/>
<polyline clip-path="url(#clip5600)" style="stroke:#000000; stroke-width:4; stroke-opacity:1; fill:none" points="
  1264.91,1423.18 1264.91,1406.67 
  "/>
<polyline clip-path="url(#clip5600)" style="stroke:#000000; stroke-width:4; stroke-opacity:1; fill:none" points="
  1557.33,1423.18 1557.33,1406.67 
  "/>
<polyline clip-path="url(#clip5600)" style="stroke:#000000; stroke-width:4; stroke-opacity:1; fill:none" points="
  1849.75,1423.18 1849.75,1406.67 
  "/>
<polyline clip-path="url(#clip5600)" style="stroke:#000000; stroke-width:4; stroke-opacity:1; fill:none" points="
  2142.17,1423.18 2142.17,1406.67 
  "/>
<polyline clip-path="url(#clip5600)" style="stroke:#000000; stroke-width:4; stroke-opacity:1; fill:none" points="
  211.602,1423.18 237.296,1423.18 
  "/>
<polyline clip-path="url(#clip5600)" style="stroke:#000000; stroke-width:4; stroke-opacity:1; fill:none" points="
  211.602,1147.99 237.296,1147.99 
  "/>
<polyline clip-path="url(#clip5600)" style="stroke:#000000; stroke-width:4; stroke-opacity:1; fill:none" points="
  211.602,872.806 237.296,872.806 
  "/>
<polyline clip-path="url(#clip5600)" style="stroke:#000000; stroke-width:4; stroke-opacity:1; fill:none" points="
  211.602,597.618 237.296,597.618 
  "/>
<polyline clip-path="url(#clip5600)" style="stroke:#000000; stroke-width:4; stroke-opacity:1; fill:none" points="
  211.602,322.431 237.296,322.431 
  "/>
<polyline clip-path="url(#clip5600)" style="stroke:#000000; stroke-width:4; stroke-opacity:1; fill:none" points="
  211.602,47.2441 237.296,47.2441 
  "/>
<path clip-path="url(#clip5600)" d="M 0 0 M377.935 1442.09 L396.291 1442.09 L396.291 1446.03 L382.217 1446.03 L382.217 1454.5 Q383.235 1454.15 384.254 1453.99 Q385.272 1453.8 386.291 1453.8 Q392.078 1453.8 395.458 1456.98 Q398.837 1460.15 398.837 1465.56 Q398.837 1471.14 395.365 1474.24 Q391.893 1477.32 385.573 1477.32 Q383.397 1477.32 381.129 1476.95 Q378.884 1476.58 376.476 1475.84 L376.476 1471.14 Q378.56 1472.28 380.782 1472.83 Q383.004 1473.39 385.481 1473.39 Q389.485 1473.39 391.823 1471.28 Q394.161 1469.18 394.161 1465.56 Q394.161 1461.95 391.823 1459.85 Q389.485 1457.74 385.481 1457.74 Q383.606 1457.74 381.731 1458.16 Q379.879 1458.57 377.935 1459.45 L377.935 1442.09 Z" fill="#000000" fill-rule="evenodd" fill-opacity="1" /><path clip-path="url(#clip5600)" d="M 0 0 M680.48 1457.51 Q677.332 1457.51 675.48 1459.66 Q673.652 1461.81 673.652 1465.56 Q673.652 1469.29 675.48 1471.47 Q677.332 1473.62 680.48 1473.62 Q683.629 1473.62 685.457 1471.47 Q687.309 1469.29 687.309 1465.56 Q687.309 1461.81 685.457 1459.66 Q683.629 1457.51 680.48 1457.51 M689.763 1442.86 L689.763 1447.11 Q688.003 1446.28 686.198 1445.84 Q684.416 1445.4 682.656 1445.4 Q678.027 1445.4 675.573 1448.53 Q673.142 1451.65 672.795 1457.97 Q674.161 1455.96 676.221 1454.89 Q678.281 1453.8 680.758 1453.8 Q685.966 1453.8 688.976 1456.98 Q692.008 1460.12 692.008 1465.56 Q692.008 1470.89 688.86 1474.11 Q685.712 1477.32 680.48 1477.32 Q674.485 1477.32 671.314 1472.74 Q668.142 1468.13 668.142 1459.41 Q668.142 1451.21 672.031 1446.35 Q675.92 1441.47 682.471 1441.47 Q684.23 1441.47 686.013 1441.81 Q687.818 1442.16 689.763 1442.86 Z" fill="#000000" fill-rule="evenodd" fill-opacity="1" /><path clip-path="url(#clip5600)" d="M 0 0 M961.383 1442.09 L983.605 1442.09 L983.605 1444.08 L971.059 1476.65 L966.174 1476.65 L977.98 1446.03 L961.383 1446.03 L961.383 1442.09 Z" fill="#000000" fill-rule="evenodd" fill-opacity="1" /><path clip-path="url(#clip5600)" d="M 0 0 M1264.91 1460.24 Q1261.58 1460.24 1259.66 1462.02 Q1257.76 1463.8 1257.76 1466.93 Q1257.76 1470.05 1259.66 1471.84 Q1261.58 1473.62 1264.91 1473.62 Q1268.25 1473.62 1270.17 1471.84 Q1272.09 1470.03 1272.09 1466.93 Q1272.09 1463.8 1270.17 1462.02 Q1268.27 1460.24 1264.91 1460.24 M1260.24 1458.25 Q1257.23 1457.51 1255.54 1455.45 Q1253.87 1453.39 1253.87 1450.43 Q1253.87 1446.28 1256.81 1443.87 Q1259.77 1441.47 1264.91 1441.47 Q1270.07 1441.47 1273.01 1443.87 Q1275.95 1446.28 1275.95 1450.43 Q1275.95 1453.39 1274.26 1455.45 Q1272.6 1457.51 1269.61 1458.25 Q1272.99 1459.04 1274.87 1461.33 Q1276.76 1463.62 1276.76 1466.93 Q1276.76 1471.95 1273.69 1474.64 Q1270.63 1477.32 1264.91 1477.32 Q1259.19 1477.32 1256.12 1474.64 Q1253.06 1471.95 1253.06 1466.93 Q1253.06 1463.62 1254.96 1461.33 Q1256.86 1459.04 1260.24 1458.25 M1258.52 1450.86 Q1258.52 1453.55 1260.19 1455.05 Q1261.88 1456.56 1264.91 1456.56 Q1267.92 1456.56 1269.61 1455.05 Q1271.32 1453.55 1271.32 1450.86 Q1271.32 1448.18 1269.61 1446.68 Q1267.92 1445.17 1264.91 1445.17 Q1261.88 1445.17 1260.19 1446.68 Q1258.52 1448.18 1258.52 1450.86 Z" fill="#000000" fill-rule="evenodd" fill-opacity="1" /><path clip-path="url(#clip5600)" d="M 0 0 M1547.63 1475.93 L1547.63 1471.68 Q1549.39 1472.51 1551.2 1472.95 Q1553 1473.39 1554.74 1473.39 Q1559.37 1473.39 1561.8 1470.29 Q1564.25 1467.16 1564.6 1460.82 Q1563.26 1462.81 1561.2 1463.87 Q1559.14 1464.94 1556.64 1464.94 Q1551.45 1464.94 1548.42 1461.81 Q1545.41 1458.67 1545.41 1453.23 Q1545.41 1447.9 1548.56 1444.68 Q1551.71 1441.47 1556.94 1441.47 Q1562.93 1441.47 1566.08 1446.07 Q1569.25 1450.66 1569.25 1459.41 Q1569.25 1467.58 1565.36 1472.46 Q1561.5 1477.32 1554.95 1477.32 Q1553.19 1477.32 1551.38 1476.98 Q1549.58 1476.63 1547.63 1475.93 M1556.94 1461.28 Q1560.09 1461.28 1561.91 1459.13 Q1563.77 1456.98 1563.77 1453.23 Q1563.77 1449.5 1561.91 1447.35 Q1560.09 1445.17 1556.94 1445.17 Q1553.79 1445.17 1551.94 1447.35 Q1550.11 1449.5 1550.11 1453.23 Q1550.11 1456.98 1551.94 1459.13 Q1553.79 1461.28 1556.94 1461.28 Z" fill="#000000" fill-rule="evenodd" fill-opacity="1" /><path clip-path="url(#clip5600)" d="M 0 0 M1826.62 1472.72 L1834.26 1472.72 L1834.26 1446.35 L1825.95 1448.02 L1825.95 1443.76 L1834.22 1442.09 L1838.89 1442.09 L1838.89 1472.72 L1846.53 1472.72 L1846.53 1476.65 L1826.62 1476.65 L1826.62 1472.72 Z" fill="#000000" fill-rule="evenodd" fill-opacity="1" /><path clip-path="url(#clip5600)" d="M 0 0 M1861.6 1445.17 Q1857.99 1445.17 1856.16 1448.74 Q1854.36 1452.28 1854.36 1459.41 Q1854.36 1466.51 1856.16 1470.08 Q1857.99 1473.62 1861.6 1473.62 Q1865.24 1473.62 1867.04 1470.08 Q1868.87 1466.51 1868.87 1459.41 Q1868.87 1452.28 1867.04 1448.74 Q1865.24 1445.17 1861.6 1445.17 M1861.6 1441.47 Q1867.41 1441.47 1870.47 1446.07 Q1873.55 1450.66 1873.55 1459.41 Q1873.55 1468.13 1870.47 1472.74 Q1867.41 1477.32 1861.6 1477.32 Q1855.79 1477.32 1852.71 1472.74 Q1849.66 1468.13 1849.66 1459.41 Q1849.66 1450.66 1852.71 1446.07 Q1855.79 1441.47 1861.6 1441.47 Z" fill="#000000" fill-rule="evenodd" fill-opacity="1" /><path clip-path="url(#clip5600)" d="M 0 0 M2119.66 1472.72 L2127.3 1472.72 L2127.3 1446.35 L2118.99 1448.02 L2118.99 1443.76 L2127.25 1442.09 L2131.93 1442.09 L2131.93 1472.72 L2139.56 1472.72 L2139.56 1476.65 L2119.66 1476.65 L2119.66 1472.72 Z" fill="#000000" fill-rule="evenodd" fill-opacity="1" /><path clip-path="url(#clip5600)" d="M 0 0 M2145.44 1472.72 L2153.08 1472.72 L2153.08 1446.35 L2144.77 1448.02 L2144.77 1443.76 L2153.04 1442.09 L2157.71 1442.09 L2157.71 1472.72 L2165.35 1472.72 L2165.35 1476.65 L2145.44 1476.65 L2145.44 1472.72 Z" fill="#000000" fill-rule="evenodd" fill-opacity="1" /><path clip-path="url(#clip5600)" d="M 0 0 M138.691 1408.98 Q135.08 1408.98 133.251 1412.54 Q131.445 1416.08 131.445 1423.21 Q131.445 1430.32 133.251 1433.89 Q135.08 1437.43 138.691 1437.43 Q142.325 1437.43 144.13 1433.89 Q145.959 1430.32 145.959 1423.21 Q145.959 1416.08 144.13 1412.54 Q142.325 1408.98 138.691 1408.98 M138.691 1405.27 Q144.501 1405.27 147.556 1409.88 Q150.635 1414.46 150.635 1423.21 Q150.635 1431.94 147.556 1436.55 Q144.501 1441.13 138.691 1441.13 Q132.88 1441.13 129.802 1436.55 Q126.746 1431.94 126.746 1423.21 Q126.746 1414.46 129.802 1409.88 Q132.88 1405.27 138.691 1405.27 Z" fill="#000000" fill-rule="evenodd" fill-opacity="1" /><path clip-path="url(#clip5600)" d="M 0 0 M155.704 1434.58 L160.589 1434.58 L160.589 1440.46 L155.704 1440.46 L155.704 1434.58 Z" fill="#000000" fill-rule="evenodd" fill-opacity="1" /><path clip-path="url(#clip5600)" d="M 0 0 M175.658 1408.98 Q172.047 1408.98 170.218 1412.54 Q168.413 1416.08 168.413 1423.21 Q168.413 1430.32 170.218 1433.89 Q172.047 1437.43 175.658 1437.43 Q179.292 1437.43 181.098 1433.89 Q182.927 1430.32 182.927 1423.21 Q182.927 1416.08 181.098 1412.54 Q179.292 1408.98 175.658 1408.98 M175.658 1405.27 Q181.468 1405.27 184.524 1409.88 Q187.602 1414.46 187.602 1423.21 Q187.602 1431.94 184.524 1436.55 Q181.468 1441.13 175.658 1441.13 Q169.848 1441.13 166.769 1436.55 Q163.714 1431.94 163.714 1423.21 Q163.714 1414.46 166.769 1409.88 Q169.848 1405.27 175.658 1405.27 Z" fill="#000000" fill-rule="evenodd" fill-opacity="1" /><path clip-path="url(#clip5600)" d="M 0 0 M140.288 1133.79 Q136.677 1133.79 134.848 1137.36 Q133.043 1140.9 133.043 1148.03 Q133.043 1155.13 134.848 1158.7 Q136.677 1162.24 140.288 1162.24 Q143.922 1162.24 145.728 1158.7 Q147.556 1155.13 147.556 1148.03 Q147.556 1140.9 145.728 1137.36 Q143.922 1133.79 140.288 1133.79 M140.288 1130.09 Q146.098 1130.09 149.154 1134.69 Q152.232 1139.28 152.232 1148.03 Q152.232 1156.75 149.154 1161.36 Q146.098 1165.94 140.288 1165.94 Q134.478 1165.94 131.399 1161.36 Q128.343 1156.75 128.343 1148.03 Q128.343 1139.28 131.399 1134.69 Q134.478 1130.09 140.288 1130.09 Z" fill="#000000" fill-rule="evenodd" fill-opacity="1" /><path clip-path="url(#clip5600)" d="M 0 0 M157.302 1159.39 L162.186 1159.39 L162.186 1165.27 L157.302 1165.27 L157.302 1159.39 Z" fill="#000000" fill-rule="evenodd" fill-opacity="1" /><path clip-path="url(#clip5600)" d="M 0 0 M171.283 1161.34 L187.602 1161.34 L187.602 1165.27 L165.658 1165.27 L165.658 1161.34 Q168.32 1158.58 172.903 1153.95 Q177.51 1149.3 178.69 1147.96 Q180.936 1145.43 181.815 1143.7 Q182.718 1141.94 182.718 1140.25 Q182.718 1137.5 180.774 1135.76 Q178.852 1134.02 175.751 1134.02 Q173.552 1134.02 171.098 1134.79 Q168.667 1135.55 165.89 1137.1 L165.89 1132.38 Q168.714 1131.25 171.167 1130.67 Q173.621 1130.09 175.658 1130.09 Q181.028 1130.09 184.223 1132.77 Q187.417 1135.46 187.417 1139.95 Q187.417 1142.08 186.607 1144 Q185.82 1145.9 183.714 1148.49 Q183.135 1149.16 180.033 1152.38 Q176.931 1155.57 171.283 1161.34 Z" fill="#000000" fill-rule="evenodd" fill-opacity="1" /><path clip-path="url(#clip5600)" d="M 0 0 M138.205 858.604 Q134.593 858.604 132.765 862.169 Q130.959 865.711 130.959 872.84 Q130.959 879.947 132.765 883.512 Q134.593 887.053 138.205 887.053 Q141.839 887.053 143.644 883.512 Q145.473 879.947 145.473 872.84 Q145.473 865.711 143.644 862.169 Q141.839 858.604 138.205 858.604 M138.205 854.901 Q144.015 854.901 147.07 859.507 Q150.149 864.09 150.149 872.84 Q150.149 881.567 147.07 886.174 Q144.015 890.757 138.205 890.757 Q132.394 890.757 129.316 886.174 Q126.26 881.567 126.26 872.84 Q126.26 864.09 129.316 859.507 Q132.394 854.901 138.205 854.901 Z" fill="#000000" fill-rule="evenodd" fill-opacity="1" /><path clip-path="url(#clip5600)" d="M 0 0 M155.218 884.206 L160.103 884.206 L160.103 890.086 L155.218 890.086 L155.218 884.206 Z" fill="#000000" fill-rule="evenodd" fill-opacity="1" /><path clip-path="url(#clip5600)" d="M 0 0 M178.019 859.6 L166.214 878.049 L178.019 878.049 L178.019 859.6 M176.792 855.526 L182.672 855.526 L182.672 878.049 L187.602 878.049 L187.602 881.937 L182.672 881.937 L182.672 890.086 L178.019 890.086 L178.019 881.937 L162.417 881.937 L162.417 877.424 L176.792 855.526 Z" fill="#000000" fill-rule="evenodd" fill-opacity="1" /><path clip-path="url(#clip5600)" d="M 0 0 M138.529 583.417 Q134.918 583.417 133.089 586.982 Q131.283 590.524 131.283 597.653 Q131.283 604.76 133.089 608.324 Q134.918 611.866 138.529 611.866 Q142.163 611.866 143.968 608.324 Q145.797 604.76 145.797 597.653 Q145.797 590.524 143.968 586.982 Q142.163 583.417 138.529 583.417 M138.529 579.713 Q144.339 579.713 147.394 584.32 Q150.473 588.903 150.473 597.653 Q150.473 606.38 147.394 610.986 Q144.339 615.57 138.529 615.57 Q132.718 615.57 129.64 610.986 Q126.584 606.38 126.584 597.653 Q126.584 588.903 129.64 584.32 Q132.718 579.713 138.529 579.713 Z" fill="#000000" fill-rule="evenodd" fill-opacity="1" /><path clip-path="url(#clip5600)" d="M 0 0 M155.542 609.019 L160.427 609.019 L160.427 614.898 L155.542 614.898 L155.542 609.019 Z" fill="#000000" fill-rule="evenodd" fill-opacity="1" /><path clip-path="url(#clip5600)" d="M 0 0 M176.075 595.755 Q172.927 595.755 171.075 597.908 Q169.246 600.061 169.246 603.81 Q169.246 607.537 171.075 609.713 Q172.927 611.866 176.075 611.866 Q179.223 611.866 181.052 609.713 Q182.903 607.537 182.903 603.81 Q182.903 600.061 181.052 597.908 Q179.223 595.755 176.075 595.755 M185.357 581.102 L185.357 585.362 Q183.598 584.528 181.792 584.088 Q180.01 583.649 178.251 583.649 Q173.621 583.649 171.167 586.774 Q168.737 589.899 168.39 596.218 Q169.755 594.204 171.815 593.139 Q173.876 592.051 176.352 592.051 Q181.561 592.051 184.57 595.223 Q187.602 598.371 187.602 603.81 Q187.602 609.135 184.454 612.352 Q181.306 615.57 176.075 615.57 Q170.079 615.57 166.908 610.986 Q163.737 606.38 163.737 597.653 Q163.737 589.459 167.626 584.598 Q171.515 579.713 178.065 579.713 Q179.825 579.713 181.607 580.061 Q183.413 580.408 185.357 581.102 Z" fill="#000000" fill-rule="evenodd" fill-opacity="1" /><path clip-path="url(#clip5600)" d="M 0 0 M138.783 308.23 Q135.172 308.23 133.343 311.795 Q131.538 315.336 131.538 322.466 Q131.538 329.572 133.343 333.137 Q135.172 336.679 138.783 336.679 Q142.417 336.679 144.223 333.137 Q146.052 329.572 146.052 322.466 Q146.052 315.336 144.223 311.795 Q142.417 308.23 138.783 308.23 M138.783 304.526 Q144.593 304.526 147.649 309.133 Q150.728 313.716 150.728 322.466 Q150.728 331.193 147.649 335.799 Q144.593 340.383 138.783 340.383 Q132.973 340.383 129.894 335.799 Q126.839 331.193 126.839 322.466 Q126.839 313.716 129.894 309.133 Q132.973 304.526 138.783 304.526 Z" fill="#000000" fill-rule="evenodd" fill-opacity="1" /><path clip-path="url(#clip5600)" d="M 0 0 M155.797 333.832 L160.681 333.832 L160.681 339.711 L155.797 339.711 L155.797 333.832 Z" fill="#000000" fill-rule="evenodd" fill-opacity="1" /><path clip-path="url(#clip5600)" d="M 0 0 M175.751 323.299 Q172.417 323.299 170.496 325.082 Q168.598 326.864 168.598 329.989 Q168.598 333.114 170.496 334.896 Q172.417 336.679 175.751 336.679 Q179.084 336.679 181.005 334.896 Q182.927 333.091 182.927 329.989 Q182.927 326.864 181.005 325.082 Q179.107 323.299 175.751 323.299 M171.075 321.309 Q168.065 320.568 166.376 318.508 Q164.709 316.447 164.709 313.485 Q164.709 309.341 167.649 306.934 Q170.612 304.526 175.751 304.526 Q180.913 304.526 183.852 306.934 Q186.792 309.341 186.792 313.485 Q186.792 316.447 185.102 318.508 Q183.436 320.568 180.45 321.309 Q183.829 322.096 185.704 324.387 Q187.602 326.679 187.602 329.989 Q187.602 335.012 184.524 337.697 Q181.468 340.383 175.751 340.383 Q170.033 340.383 166.954 337.697 Q163.899 335.012 163.899 329.989 Q163.899 326.679 165.797 324.387 Q167.695 322.096 171.075 321.309 M169.362 313.924 Q169.362 316.61 171.028 318.114 Q172.718 319.619 175.751 319.619 Q178.76 319.619 180.45 318.114 Q182.163 316.61 182.163 313.924 Q182.163 311.239 180.45 309.735 Q178.76 308.23 175.751 308.23 Q172.718 308.23 171.028 309.735 Q169.362 311.239 169.362 313.924 Z" fill="#000000" fill-rule="evenodd" fill-opacity="1" /><path clip-path="url(#clip5600)" d="M 0 0 M130.728 60.5889 L138.367 60.5889 L138.367 34.2233 L130.056 35.89 L130.056 31.6308 L138.32 29.9641 L142.996 29.9641 L142.996 60.5889 L150.635 60.5889 L150.635 64.5241 L130.728 64.5241 L130.728 60.5889 Z" fill="#000000" fill-rule="evenodd" fill-opacity="1" /><path clip-path="url(#clip5600)" d="M 0 0 M155.704 58.6445 L160.589 58.6445 L160.589 64.5241 L155.704 64.5241 L155.704 58.6445 Z" fill="#000000" fill-rule="evenodd" fill-opacity="1" /><path clip-path="url(#clip5600)" d="M 0 0 M175.658 33.0428 Q172.047 33.0428 170.218 36.6076 Q168.413 40.1492 168.413 47.2788 Q168.413 54.3853 170.218 57.9501 Q172.047 61.4917 175.658 61.4917 Q179.292 61.4917 181.098 57.9501 Q182.927 54.3853 182.927 47.2788 Q182.927 40.1492 181.098 36.6076 Q179.292 33.0428 175.658 33.0428 M175.658 29.3391 Q181.468 29.3391 184.524 33.9456 Q187.602 38.5289 187.602 47.2788 Q187.602 56.0056 184.524 60.6121 Q181.468 65.1954 175.658 65.1954 Q169.848 65.1954 166.769 60.6121 Q163.714 56.0056 163.714 47.2788 Q163.714 38.5289 166.769 33.9456 Q169.848 29.3391 175.658 29.3391 Z" fill="#000000" fill-rule="evenodd" fill-opacity="1" /><path clip-path="url(#clip5600)" d="M 0 0 M1010 1506.58 Q1005.73 1513.9 1003.66 1521.06 Q1001.59 1528.23 1001.59 1535.58 Q1001.59 1542.93 1003.66 1550.16 Q1005.76 1557.35 1010 1564.64 L1004.9 1564.64 Q1000.13 1557.16 997.743 1549.93 Q995.388 1542.71 995.388 1535.58 Q995.388 1528.48 997.743 1521.29 Q1000.1 1514.09 1004.9 1506.58 L1010 1506.58 Z" fill="#000000" fill-rule="evenodd" fill-opacity="1" /><path clip-path="url(#clip5600)" d="M 0 0 M1016.39 1508.52 L1022.82 1508.52 L1022.82 1550.63 L1045.96 1550.63 L1045.96 1556.04 L1016.39 1556.04 L1016.39 1508.52 Z" fill="#000000" fill-rule="evenodd" fill-opacity="1" /><path clip-path="url(#clip5600)" d="M 0 0 M1064.77 1524.5 Q1060.06 1524.5 1057.33 1528.19 Q1054.59 1531.85 1054.59 1538.25 Q1054.59 1544.65 1057.29 1548.34 Q1060.03 1552 1064.77 1552 Q1069.45 1552 1072.19 1548.31 Q1074.93 1544.62 1074.93 1538.25 Q1074.93 1531.92 1072.19 1528.23 Q1069.45 1524.5 1064.77 1524.5 M1064.77 1519.54 Q1072.41 1519.54 1076.77 1524.5 Q1081.13 1529.47 1081.13 1538.25 Q1081.13 1547 1076.77 1552 Q1072.41 1556.97 1064.77 1556.97 Q1057.1 1556.97 1052.74 1552 Q1048.41 1547 1048.41 1538.25 Q1048.41 1529.47 1052.74 1524.5 Q1057.1 1519.54 1064.77 1519.54 Z" fill="#000000" fill-rule="evenodd" fill-opacity="1" /><path clip-path="url(#clip5600)" d="M 0 0 M1110.73 1537.81 Q1110.73 1531.44 1108.09 1527.94 Q1105.48 1524.44 1100.74 1524.44 Q1096.03 1524.44 1093.39 1527.94 Q1090.78 1531.44 1090.78 1537.81 Q1090.78 1544.14 1093.39 1547.64 Q1096.03 1551.14 1100.74 1551.14 Q1105.48 1551.14 1108.09 1547.64 Q1110.73 1544.14 1110.73 1537.81 M1116.59 1551.62 Q1116.59 1560.72 1112.55 1565.15 Q1108.51 1569.6 1100.17 1569.6 Q1097.08 1569.6 1094.34 1569.13 Q1091.61 1568.68 1089.03 1567.72 L1089.03 1562.03 Q1091.61 1563.43 1094.12 1564.1 Q1096.63 1564.76 1099.24 1564.76 Q1105.01 1564.76 1107.87 1561.74 Q1110.73 1558.75 1110.73 1552.67 L1110.73 1549.77 Q1108.92 1552.92 1106.09 1554.48 Q1103.26 1556.04 1099.31 1556.04 Q1092.75 1556.04 1088.74 1551.05 Q1084.73 1546.05 1084.73 1537.81 Q1084.73 1529.53 1088.74 1524.53 Q1092.75 1519.54 1099.31 1519.54 Q1103.26 1519.54 1106.09 1521.1 Q1108.92 1522.66 1110.73 1525.81 L1110.73 1520.4 L1116.59 1520.4 L1116.59 1551.62 Z" fill="#000000" fill-rule="evenodd" fill-opacity="1" /><path clip-path="url(#clip5600)" d="M 0 0 M1121.81 1506.58 L1126.9 1506.58 Q1131.68 1514.09 1134.03 1521.29 Q1136.42 1528.48 1136.42 1535.58 Q1136.42 1542.71 1134.03 1549.93 Q1131.68 1557.16 1126.9 1564.64 L1121.81 1564.64 Q1126.04 1557.35 1128.11 1550.16 Q1130.21 1542.93 1130.21 1535.58 Q1130.21 1528.23 1128.11 1521.06 Q1126.04 1513.9 1121.81 1506.58 Z" fill="#000000" fill-rule="evenodd" fill-opacity="1" /><path clip-path="url(#clip5600)" d="M 0 0 M1163.54 1508.52 L1169.97 1508.52 L1169.97 1528.61 L1191.29 1508.52 L1199.57 1508.52 L1175.98 1530.68 L1201.26 1556.04 L1192.79 1556.04 L1169.97 1533.16 L1169.97 1556.04 L1163.54 1556.04 L1163.54 1508.52 Z" fill="#000000" fill-rule="evenodd" fill-opacity="1" /><path clip-path="url(#clip5600)" d="M 0 0 M1239.67 1512.18 L1239.67 1518.96 Q1236.43 1515.94 1232.73 1514.44 Q1229.07 1512.95 1224.94 1512.95 Q1216.79 1512.95 1212.46 1517.95 Q1208.13 1522.91 1208.13 1532.33 Q1208.13 1541.72 1212.46 1546.72 Q1216.79 1551.68 1224.94 1551.68 Q1229.07 1551.68 1232.73 1550.19 Q1236.43 1548.69 1239.67 1545.67 L1239.67 1552.38 Q1236.3 1554.68 1232.51 1555.82 Q1228.75 1556.97 1224.55 1556.97 Q1213.76 1556.97 1207.56 1550.38 Q1201.35 1543.76 1201.35 1532.33 Q1201.35 1520.87 1207.56 1514.28 Q1213.76 1507.66 1224.55 1507.66 Q1228.82 1507.66 1232.57 1508.81 Q1236.36 1509.92 1239.67 1512.18 Z" fill="#000000" fill-rule="evenodd" fill-opacity="1" /><path clip-path="url(#clip5600)" d="M 0 0 M1266.79 1508.52 L1273.22 1508.52 L1273.22 1550.63 L1296.36 1550.63 L1296.36 1556.04 L1266.79 1556.04 L1266.79 1508.52 Z" fill="#000000" fill-rule="evenodd" fill-opacity="1" /><path clip-path="url(#clip5600)" d="M 0 0 M1318.7 1538.12 Q1311.6 1538.12 1308.87 1539.75 Q1306.13 1541.37 1306.13 1545.29 Q1306.13 1548.4 1308.17 1550.25 Q1310.24 1552.07 1313.77 1552.07 Q1318.64 1552.07 1321.57 1548.63 Q1324.53 1545.16 1324.53 1539.43 L1324.53 1538.12 L1318.7 1538.12 M1330.38 1535.71 L1330.38 1556.04 L1324.53 1556.04 L1324.53 1550.63 Q1322.52 1553.88 1319.53 1555.44 Q1316.54 1556.97 1312.21 1556.97 Q1306.73 1556.97 1303.49 1553.91 Q1300.27 1550.82 1300.27 1545.67 Q1300.27 1539.65 1304.28 1536.6 Q1308.33 1533.54 1316.32 1533.54 L1324.53 1533.54 L1324.53 1532.97 Q1324.53 1528.93 1321.85 1526.73 Q1319.21 1524.5 1314.41 1524.5 Q1311.35 1524.5 1308.45 1525.23 Q1305.56 1525.97 1302.88 1527.43 L1302.88 1522.02 Q1306.1 1520.78 1309.12 1520.17 Q1312.15 1519.54 1315.01 1519.54 Q1322.74 1519.54 1326.56 1523.55 Q1330.38 1527.56 1330.38 1535.71 Z" fill="#000000" fill-rule="evenodd" fill-opacity="1" /><path clip-path="url(#clip5600)" d="M 0 0 M1351.36 1559.35 Q1348.88 1565.72 1346.52 1567.66 Q1344.17 1569.6 1340.22 1569.6 L1335.54 1569.6 L1335.54 1564.7 L1338.98 1564.7 Q1341.4 1564.7 1342.73 1563.56 Q1344.07 1562.41 1345.69 1558.14 L1346.74 1555.47 L1332.33 1520.4 L1338.53 1520.4 L1349.67 1548.28 L1360.81 1520.4 L1367.02 1520.4 L1351.36 1559.35 Z" fill="#000000" fill-rule="evenodd" fill-opacity="1" /><path clip-path="url(#clip5600)" d="M 0 0 M1403.65 1536.76 L1403.65 1539.62 L1376.73 1539.62 Q1377.11 1545.67 1380.35 1548.85 Q1383.63 1552 1389.46 1552 Q1392.83 1552 1395.98 1551.17 Q1399.16 1550.35 1402.28 1548.69 L1402.28 1554.23 Q1399.13 1555.57 1395.82 1556.27 Q1392.51 1556.97 1389.11 1556.97 Q1380.58 1556.97 1375.58 1552 Q1370.61 1547.04 1370.61 1538.57 Q1370.61 1529.82 1375.33 1524.69 Q1380.07 1519.54 1388.09 1519.54 Q1395.28 1519.54 1399.45 1524.18 Q1403.65 1528.8 1403.65 1536.76 M1397.8 1535.04 Q1397.73 1530.23 1395.09 1527.37 Q1392.48 1524.5 1388.15 1524.5 Q1383.25 1524.5 1380.29 1527.27 Q1377.36 1530.04 1376.92 1535.07 L1397.8 1535.04 Z" fill="#000000" fill-rule="evenodd" fill-opacity="1" /><path clip-path="url(#clip5600)" d="M 0 0 M1430.45 1525.87 Q1429.47 1525.3 1428.29 1525.04 Q1427.14 1524.76 1425.74 1524.76 Q1420.78 1524.76 1418.1 1528 Q1415.46 1531.22 1415.46 1537.27 L1415.46 1556.04 L1409.57 1556.04 L1409.57 1520.4 L1415.46 1520.4 L1415.46 1525.93 Q1417.31 1522.69 1420.27 1521.13 Q1423.23 1519.54 1427.46 1519.54 Q1428.07 1519.54 1428.8 1519.63 Q1429.53 1519.7 1430.42 1519.85 L1430.45 1525.87 Z" fill="#000000" fill-rule="evenodd" fill-opacity="1" /><path clip-path="url(#clip5600)" d="M 0 0 M1486.06 1510.08 L1486.06 1516.35 Q1482.4 1514.6 1479.15 1513.74 Q1475.9 1512.88 1472.88 1512.88 Q1467.63 1512.88 1464.76 1514.92 Q1461.93 1516.96 1461.93 1520.71 Q1461.93 1523.87 1463.81 1525.49 Q1465.72 1527.08 1471 1528.07 L1474.89 1528.86 Q1482.08 1530.23 1485.48 1533.7 Q1488.92 1537.14 1488.92 1542.93 Q1488.92 1549.84 1484.27 1553.4 Q1479.66 1556.97 1470.72 1556.97 Q1467.34 1556.97 1463.52 1556.2 Q1459.73 1555.44 1455.66 1553.94 L1455.66 1547.32 Q1459.58 1549.52 1463.33 1550.63 Q1467.09 1551.75 1470.72 1551.75 Q1476.22 1551.75 1479.21 1549.58 Q1482.21 1547.42 1482.21 1543.41 Q1482.21 1539.91 1480.04 1537.93 Q1477.91 1535.96 1473.01 1534.97 L1469.09 1534.21 Q1461.9 1532.78 1458.68 1529.72 Q1455.47 1526.67 1455.47 1521.22 Q1455.47 1514.92 1459.89 1511.29 Q1464.35 1507.66 1472.15 1507.66 Q1475.49 1507.66 1478.96 1508.27 Q1482.43 1508.87 1486.06 1510.08 Z" fill="#000000" fill-rule="evenodd" fill-opacity="1" /><path clip-path="url(#clip5600)" d="M 0 0 M1495.06 1520.4 L1500.92 1520.4 L1500.92 1556.04 L1495.06 1556.04 L1495.06 1520.4 M1495.06 1506.52 L1500.92 1506.52 L1500.92 1513.93 L1495.06 1513.93 L1495.06 1506.52 Z" fill="#000000" fill-rule="evenodd" fill-opacity="1" /><path clip-path="url(#clip5600)" d="M 0 0 M1504.52 1520.4 L1532.34 1520.4 L1532.34 1525.74 L1510.31 1551.37 L1532.34 1551.37 L1532.34 1556.04 L1503.72 1556.04 L1503.72 1550.7 L1525.75 1525.07 L1504.52 1525.07 L1504.52 1520.4 Z" fill="#000000" fill-rule="evenodd" fill-opacity="1" /><path clip-path="url(#clip5600)" d="M 0 0 M1568.97 1536.76 L1568.97 1539.62 L1542.04 1539.62 Q1542.43 1545.67 1545.67 1548.85 Q1548.95 1552 1554.77 1552 Q1558.15 1552 1561.3 1551.17 Q1564.48 1550.35 1567.6 1548.69 L1567.6 1554.23 Q1564.45 1555.57 1561.14 1556.27 Q1557.83 1556.97 1554.42 1556.97 Q1545.89 1556.97 1540.9 1552 Q1535.93 1547.04 1535.93 1538.57 Q1535.93 1529.82 1540.64 1524.69 Q1545.39 1519.54 1553.41 1519.54 Q1560.6 1519.54 1564.77 1524.18 Q1568.97 1528.8 1568.97 1536.76 M1563.11 1535.04 Q1563.05 1530.23 1560.41 1527.37 Q1557.8 1524.5 1553.47 1524.5 Q1548.57 1524.5 1545.61 1527.27 Q1542.68 1530.04 1542.23 1535.07 L1563.11 1535.04 Z" fill="#000000" fill-rule="evenodd" fill-opacity="1" /><path clip-path="url(#clip5600)" d="M 0 0 M40.4842 945.439 L40.4842 939.01 L82.5933 939.01 L82.5933 915.871 L88.0042 915.871 L88.0042 945.439 L40.4842 945.439 Z" fill="#000000" fill-rule="evenodd" fill-opacity="1" /><path clip-path="url(#clip5600)" d="M 0 0 M68.7161 880.382 L71.5806 880.382 L71.5806 907.309 Q77.6281 906.927 80.8109 903.68 Q83.9619 900.402 83.9619 894.577 Q83.9619 891.204 83.1344 888.053 Q82.3069 884.87 80.6518 881.751 L86.1899 881.751 Q87.5267 884.902 88.227 888.212 Q88.9272 891.522 88.9272 894.928 Q88.9272 903.458 83.9619 908.455 Q78.9967 913.42 70.5303 913.42 Q61.7774 913.42 56.6531 908.709 Q51.4968 903.967 51.4968 895.946 Q51.4968 888.753 56.1438 884.583 Q60.7589 880.382 68.7161 880.382 M66.9973 886.238 Q62.1912 886.302 59.3266 888.944 Q56.4621 891.554 56.4621 895.882 Q56.4621 900.784 59.2312 903.744 Q62.0002 906.672 67.0292 907.118 L66.9973 886.238 Z" fill="#000000" fill-rule="evenodd" fill-opacity="1" /><path clip-path="url(#clip5600)" d="M 0 0 M70.0847 858.038 Q70.0847 865.136 71.7079 867.873 Q73.3312 870.611 77.2461 870.611 Q80.3653 870.611 82.2114 868.574 Q84.0256 866.505 84.0256 862.972 Q84.0256 858.102 80.5881 855.174 Q77.1188 852.214 71.3897 852.214 L70.0847 852.214 L70.0847 858.038 M67.6657 846.357 L88.0042 846.357 L88.0042 852.214 L82.5933 852.214 Q85.8398 854.219 87.3994 857.211 Q88.9272 860.203 88.9272 864.531 Q88.9272 870.006 85.8716 873.252 Q82.7843 876.467 77.6281 876.467 Q71.6125 876.467 68.5569 872.457 Q65.5014 868.414 65.5014 860.425 L65.5014 852.214 L64.9285 852.214 Q60.8862 852.214 58.6901 854.887 Q56.4621 857.529 56.4621 862.335 Q56.4621 865.391 57.1941 868.287 Q57.9262 871.183 59.3903 873.857 L53.9795 873.857 Q52.7381 870.642 52.1334 867.619 Q51.4968 864.595 51.4968 861.73 Q51.4968 853.996 55.5072 850.177 Q59.5176 846.357 67.6657 846.357 Z" fill="#000000" fill-rule="evenodd" fill-opacity="1" /><path clip-path="url(#clip5600)" d="M 0 0 M57.8307 819.558 Q57.2578 820.544 57.0032 821.722 Q56.7167 822.868 56.7167 824.268 Q56.7167 829.233 59.9632 831.907 Q63.1779 834.549 69.2253 834.549 L88.0042 834.549 L88.0042 840.437 L52.3562 840.437 L52.3562 834.549 L57.8944 834.549 Q54.6479 832.703 53.0883 829.743 Q51.4968 826.783 51.4968 822.549 Q51.4968 821.945 51.5923 821.213 Q51.656 820.481 51.8151 819.589 L57.8307 819.558 Z" fill="#000000" fill-rule="evenodd" fill-opacity="1" /><path clip-path="url(#clip5600)" d="M 0 0 M66.4881 784.928 L88.0042 784.928 L88.0042 790.785 L66.679 790.785 Q61.6183 790.785 59.1038 792.758 Q56.5894 794.731 56.5894 798.678 Q56.5894 803.421 59.6131 806.158 Q62.6368 808.895 67.8567 808.895 L88.0042 808.895 L88.0042 814.783 L52.3562 814.783 L52.3562 808.895 L57.8944 808.895 Q54.6797 806.794 53.0883 803.962 Q51.4968 801.097 51.4968 797.373 Q51.4968 791.23 55.3163 788.079 Q59.1038 784.928 66.4881 784.928 Z" fill="#000000" fill-rule="evenodd" fill-opacity="1" /><path clip-path="url(#clip5600)" d="M 0 0 M52.3562 778.785 L52.3562 772.929 L88.0042 772.929 L88.0042 778.785 L52.3562 778.785 M38.479 778.785 L38.479 772.929 L45.895 772.929 L45.895 778.785 L38.479 778.785 Z" fill="#000000" fill-rule="evenodd" fill-opacity="1" /><path clip-path="url(#clip5600)" d="M 0 0 M66.4881 737.154 L88.0042 737.154 L88.0042 743.01 L66.679 743.01 Q61.6183 743.01 59.1038 744.983 Q56.5894 746.957 56.5894 750.903 Q56.5894 755.646 59.6131 758.383 Q62.6368 761.12 67.8567 761.12 L88.0042 761.12 L88.0042 767.009 L52.3562 767.009 L52.3562 761.12 L57.8944 761.12 Q54.6797 759.02 53.0883 756.187 Q51.4968 753.322 51.4968 749.598 Q51.4968 743.456 55.3163 740.305 Q59.1038 737.154 66.4881 737.154 Z" fill="#000000" fill-rule="evenodd" fill-opacity="1" /><path clip-path="url(#clip5600)" d="M 0 0 M69.7664 707.553 Q63.4007 707.553 59.8996 710.195 Q56.3984 712.805 56.3984 717.547 Q56.3984 722.258 59.8996 724.9 Q63.4007 727.509 69.7664 727.509 Q76.1003 727.509 79.6014 724.9 Q83.1026 722.258 83.1026 717.547 Q83.1026 712.805 79.6014 710.195 Q76.1003 707.553 69.7664 707.553 M83.58 701.697 Q92.683 701.697 97.1071 705.739 Q101.563 709.781 101.563 718.12 Q101.563 721.207 101.086 723.945 Q100.64 726.682 99.6852 729.26 L93.9879 729.26 Q95.3884 726.682 96.0568 724.167 Q96.7252 721.653 96.7252 719.043 Q96.7252 713.282 93.7015 710.418 Q90.7096 707.553 84.6303 707.553 L81.7339 707.553 Q84.885 709.367 86.4446 712.2 Q88.0042 715.033 88.0042 718.979 Q88.0042 725.536 83.0071 729.546 Q78.01 733.557 69.7664 733.557 Q61.491 733.557 56.4939 729.546 Q51.4968 725.536 51.4968 718.979 Q51.4968 715.033 53.0564 712.2 Q54.616 709.367 57.7671 707.553 L52.3562 707.553 L52.3562 701.697 L83.58 701.697 Z" fill="#000000" fill-rule="evenodd" fill-opacity="1" /><path clip-path="url(#clip5600)" d="M 0 0 M40.4842 674.579 L40.4842 668.149 L88.0042 668.149 L88.0042 674.579 L40.4842 674.579 Z" fill="#000000" fill-rule="evenodd" fill-opacity="1" /><path clip-path="url(#clip5600)" d="M 0 0 M66.4881 632.374 L88.0042 632.374 L88.0042 638.23 L66.679 638.23 Q61.6183 638.23 59.1038 640.204 Q56.5894 642.177 56.5894 646.124 Q56.5894 650.866 59.6131 653.604 Q62.6368 656.341 67.8567 656.341 L88.0042 656.341 L88.0042 662.229 L52.3562 662.229 L52.3562 656.341 L57.8944 656.341 Q54.6797 654.24 53.0883 651.407 Q51.4968 648.543 51.4968 644.819 Q51.4968 638.676 55.3163 635.525 Q59.1038 632.374 66.4881 632.374 Z" fill="#000000" fill-rule="evenodd" fill-opacity="1" /><path clip-path="url(#clip5600)" d="M 0 0 M57.7671 602.773 L38.479 602.773 L38.479 596.917 L88.0042 596.917 L88.0042 602.773 L82.657 602.773 Q85.8398 604.619 87.3994 607.452 Q88.9272 610.253 88.9272 614.2 Q88.9272 620.661 83.771 624.735 Q78.6147 628.777 70.212 628.777 Q61.8093 628.777 56.6531 624.735 Q51.4968 620.661 51.4968 614.2 Q51.4968 610.253 53.0564 607.452 Q54.5842 604.619 57.7671 602.773 M70.212 622.73 Q76.6732 622.73 80.3653 620.088 Q84.0256 617.415 84.0256 612.768 Q84.0256 608.121 80.3653 605.447 Q76.6732 602.773 70.212 602.773 Q63.7508 602.773 60.0905 605.447 Q56.3984 608.121 56.3984 612.768 Q56.3984 617.415 60.0905 620.088 Q63.7508 622.73 70.212 622.73 Z" fill="#000000" fill-rule="evenodd" fill-opacity="1" /><path clip-path="url(#clip5600)" d="M 0 0 M68.7161 560.282 L71.5806 560.282 L71.5806 587.209 Q77.6281 586.827 80.8109 583.581 Q83.9619 580.302 83.9619 574.478 Q83.9619 571.104 83.1344 567.953 Q82.3069 564.77 80.6518 561.651 L86.1899 561.651 Q87.5267 564.802 88.227 568.112 Q88.9272 571.422 88.9272 574.828 Q88.9272 583.358 83.9619 588.355 Q78.9967 593.32 70.5303 593.32 Q61.7774 593.32 56.6531 588.61 Q51.4968 583.867 51.4968 575.847 Q51.4968 568.653 56.1438 564.484 Q60.7589 560.282 68.7161 560.282 M66.9973 566.139 Q62.1912 566.202 59.3266 568.844 Q56.4621 571.454 56.4621 575.783 Q56.4621 580.684 59.2312 583.644 Q62.0002 586.573 67.0292 587.018 L66.9973 566.139 Z" fill="#000000" fill-rule="evenodd" fill-opacity="1" /><path clip-path="url(#clip5600)" d="M 0 0 M52.3562 525.653 L69.7028 538.543 L88.0042 524.985 L88.0042 531.891 L73.9996 542.267 L88.0042 552.644 L88.0042 559.55 L69.3526 545.705 L52.3562 558.373 L52.3562 551.466 L65.0558 542.013 L52.3562 532.56 L52.3562 525.653 Z" fill="#000000" fill-rule="evenodd" fill-opacity="1" /><circle clip-path="url(#clip5602)" cx="272.201" cy="1079.2" r="18" fill="#808080" fill-rule="evenodd" fill-opacity="1" stroke="none"/>
<circle clip-path="url(#clip5602)" cx="742.831" cy="927.843" r="18" fill="#808080" fill-rule="evenodd" fill-opacity="1" stroke="none"/>
<circle clip-path="url(#clip5602)" cx="945.52" cy="859.046" r="18" fill="#808080" fill-rule="evenodd" fill-opacity="1" stroke="none"/>
<circle clip-path="url(#clip5602)" cx="1416.15" cy="597.618" r="18" fill="#808080" fill-rule="evenodd" fill-opacity="1" stroke="none"/>
<circle clip-path="url(#clip5602)" cx="1618.84" cy="583.859" r="18" fill="#808080" fill-rule="evenodd" fill-opacity="1" stroke="none"/>
<circle clip-path="url(#clip5602)" cx="2089.47" cy="460.025" r="18" fill="#808080" fill-rule="evenodd" fill-opacity="1" stroke="none"/>
<circle clip-path="url(#clip5602)" cx="2292.16" cy="363.709" r="18" fill="#808080" fill-rule="evenodd" fill-opacity="1" stroke="none"/>
<polyline clip-path="url(#clip5602)" style="stroke:#808080; stroke-width:4; stroke-opacity:1; fill:none" points="
  272.201,1160.38 272.201,998.016 
  "/>
<polyline clip-path="url(#clip5602)" style="stroke:#808080; stroke-width:4; stroke-opacity:1; fill:none" points="
  742.831,1042.05 742.831,813.64 
  "/>
<polyline clip-path="url(#clip5602)" style="stroke:#808080; stroke-width:4; stroke-opacity:1; fill:none" points="
  945.52,970.497 945.52,747.595 
  "/>
<polyline clip-path="url(#clip5602)" style="stroke:#808080; stroke-width:4; stroke-opacity:1; fill:none" points="
  1416.15,656.784 1416.15,538.453 
  "/>
<polyline clip-path="url(#clip5602)" style="stroke:#808080; stroke-width:4; stroke-opacity:1; fill:none" points="
  1618.84,658.16 1618.84,509.559 
  "/>
<polyline clip-path="url(#clip5602)" style="stroke:#808080; stroke-width:4; stroke-opacity:1; fill:none" points="
  2089.47,575.603 2089.47,344.446 
  "/>
<polyline clip-path="url(#clip5602)" style="stroke:#808080; stroke-width:4; stroke-opacity:1; fill:none" points="
  2292.16,501.303 2292.16,226.116 
  "/>
<line clip-path="url(#clip5602)" x1="292.201" y1="1160.38" x2="252.201" y2="1160.38" style="stroke:#808080; stroke-width:3.2; stroke-opacity:1"/>
<line clip-path="url(#clip5602)" x1="292.201" y1="998.016" x2="252.201" y2="998.016" style="stroke:#808080; stroke-width:3.2; stroke-opacity:1"/>
<line clip-path="url(#clip5602)" x1="762.831" y1="1042.05" x2="722.831" y2="1042.05" style="stroke:#808080; stroke-width:3.2; stroke-opacity:1"/>
<line clip-path="url(#clip5602)" x1="762.831" y1="813.64" x2="722.831" y2="813.64" style="stroke:#808080; stroke-width:3.2; stroke-opacity:1"/>
<line clip-path="url(#clip5602)" x1="965.52" y1="970.497" x2="925.52" y2="970.497" style="stroke:#808080; stroke-width:3.2; stroke-opacity:1"/>
<line clip-path="url(#clip5602)" x1="965.52" y1="747.595" x2="925.52" y2="747.595" style="stroke:#808080; stroke-width:3.2; stroke-opacity:1"/>
<line clip-path="url(#clip5602)" x1="1436.15" y1="656.784" x2="1396.15" y2="656.784" style="stroke:#808080; stroke-width:3.2; stroke-opacity:1"/>
<line clip-path="url(#clip5602)" x1="1436.15" y1="538.453" x2="1396.15" y2="538.453" style="stroke:#808080; stroke-width:3.2; stroke-opacity:1"/>
<line clip-path="url(#clip5602)" x1="1638.84" y1="658.16" x2="1598.84" y2="658.16" style="stroke:#808080; stroke-width:3.2; stroke-opacity:1"/>
<line clip-path="url(#clip5602)" x1="1638.84" y1="509.559" x2="1598.84" y2="509.559" style="stroke:#808080; stroke-width:3.2; stroke-opacity:1"/>
<line clip-path="url(#clip5602)" x1="2109.47" y1="575.603" x2="2069.47" y2="575.603" style="stroke:#808080; stroke-width:3.2; stroke-opacity:1"/>
<line clip-path="url(#clip5602)" x1="2109.47" y1="344.446" x2="2069.47" y2="344.446" style="stroke:#808080; stroke-width:3.2; stroke-opacity:1"/>
<line clip-path="url(#clip5602)" x1="2312.16" y1="501.303" x2="2272.16" y2="501.303" style="stroke:#808080; stroke-width:3.2; stroke-opacity:1"/>
<line clip-path="url(#clip5602)" x1="2312.16" y1="226.116" x2="2272.16" y2="226.116" style="stroke:#808080; stroke-width:3.2; stroke-opacity:1"/>
</svg>
